<svg width="45" height="45" viewBox="0 0 45 45" fill="none" xmlns="http://www.w3.org/2000/svg">
<g clip-path="url(#clip0_982_104)">
<path d="M22.5 0C10.0937 0 0 10.0937 0 22.5C0 34.9063 10.0937 45 22.5 45C34.9063 45 45 34.9063 45 22.5C45 10.0937 34.9063 0 22.5 0ZM22.5 42.1875C11.6441 42.1875 2.8125 33.3559 2.8125 22.5C2.8125 11.6441 11.6441 2.8125 22.5 2.8125C33.3559 2.8125 42.1875 11.6441 42.1875 22.5C42.1875 33.3559 33.3559 42.1875 22.5 42.1875ZM31.9317 21.5058C32.4812 22.0553 32.4812 22.9451 31.9317 23.4942L24.9005 30.5255C24.6259 30.8 24.2659 30.9375 23.9062 30.9375C23.5466 30.9375 23.1866 30.8 22.912 30.5255C22.3625 29.976 22.3625 29.0862 22.912 28.537L27.5428 23.9062H14.0625C13.2859 23.9062 12.6562 23.2773 12.6562 22.5C12.6562 21.7227 13.2859 21.0938 14.0625 21.0938H27.5428L22.912 16.463C22.3625 15.9135 22.3625 15.0237 22.912 14.4745C23.4615 13.9254 24.3513 13.925 24.9005 14.4745L31.9317 21.5058Z" fill="black"/>
</g>
<defs>
<clipPath id="clip0_982_104">
<rect width="45" height="45" fill="white"/>
</clipPath>
</defs>
</svg>
