<svg width="500" height="500" viewBox="0 0 500 500" fill="none" xmlns="http://www.w3.org/2000/svg">
<path d="M191.777 108.901C192.762 108.901 193.726 108.609 194.546 108.061C195.365 107.513 196.004 106.735 196.38 105.824C196.758 104.914 196.857 103.912 196.664 102.945C196.472 101.978 195.997 101.09 195.3 100.393L193.877 98.97C192.942 98.036 191.675 97.5103 190.353 97.5103C189.032 97.5103 187.764 98.036 186.829 98.97C185.895 99.9048 185.369 101.173 185.369 102.494C185.369 103.816 185.895 105.083 186.829 106.018L188.252 107.441M191.777 108.901C191.122 108.902 190.474 108.773 189.869 108.522C189.264 108.272 188.715 107.905 188.252 107.441" fill="#00084D"/>
<path d="M191.777 108.901C192.762 108.901 193.726 108.609 194.546 108.061C195.365 107.513 196.004 106.735 196.38 105.824C196.758 104.914 196.857 103.912 196.664 102.945C196.472 101.978 195.997 101.09 195.3 100.393L193.877 98.97C192.942 98.036 191.675 97.5103 190.353 97.5103C189.032 97.5103 187.764 98.036 186.829 98.97C185.895 99.9048 185.369 101.173 185.369 102.494C185.369 103.816 185.895 105.083 186.829 106.018L188.252 107.441M191.777 108.901V108.475M191.777 108.901C191.122 108.902 190.474 108.773 189.869 108.522C189.264 108.272 188.715 107.905 188.252 107.441M188.252 107.441L188.554 107.14" stroke="#00084D"/>
<path d="M172.598 120.252C172.136 119.79 171.768 119.24 171.518 118.635C171.267 118.031 171.139 117.382 171.139 116.728C171.139 116.073 171.267 115.426 171.518 114.821C171.768 114.217 172.136 113.667 172.598 113.204M172.598 120.252L179.345 113.505C178.922 113.082 178.419 112.746 177.866 112.517C177.313 112.288 176.721 112.17 176.122 112.17C175.524 112.17 174.932 112.288 174.379 112.517C173.825 112.747 173.323 113.082 172.9 113.505L172.598 113.204M172.598 113.204C173.061 112.742 173.611 112.374 174.215 112.124C174.82 111.873 175.468 111.744 176.122 111.744C176.776 111.744 177.425 111.873 178.029 112.123C178.634 112.373 179.184 112.741 179.646 113.203L181.07 114.626C182.004 115.561 182.529 116.828 182.529 118.151C182.529 119.473 182.004 120.74 181.07 121.675C180.135 122.609 178.868 123.134 177.546 123.134C176.224 123.134 174.956 122.609 174.021 121.675M172.598 113.204L174.021 121.675ZM174.021 121.675L174.323 121.373C175.178 122.228 176.337 122.708 177.546 122.708C178.754 122.708 179.913 122.228 180.768 121.373C181.623 120.518 182.103 119.359 182.103 118.151C182.103 116.942 181.623 115.783 180.768 114.928L174.021 121.675Z" fill="#00084D"/>
<path d="M172.598 120.252C172.136 119.79 171.768 119.24 171.518 118.635C171.267 118.031 171.139 117.382 171.139 116.728C171.139 116.073 171.267 115.426 171.518 114.821C171.768 114.217 172.136 113.667 172.598 113.204M172.598 120.252L179.345 113.505C178.922 113.082 178.419 112.746 177.866 112.517C177.313 112.288 176.721 112.17 176.122 112.17C175.524 112.17 174.932 112.288 174.379 112.517C173.825 112.747 173.323 113.082 172.9 113.505L172.598 113.204M172.598 120.252L174.021 121.675M172.598 113.204C173.061 112.742 173.611 112.374 174.215 112.124C174.82 111.873 175.468 111.744 176.122 111.744C176.776 111.744 177.425 111.873 178.029 112.123C178.634 112.373 179.184 112.741 179.646 113.203L181.07 114.626C182.004 115.561 182.529 116.828 182.529 118.151C182.529 119.473 182.004 120.74 181.07 121.675C180.135 122.609 178.868 123.134 177.546 123.134C176.224 123.134 174.956 122.609 174.021 121.675M172.598 113.204L174.021 121.675M174.021 121.675L174.323 121.373C175.178 122.228 176.337 122.708 177.546 122.708C178.754 122.708 179.913 122.228 180.768 121.373C181.623 120.518 182.103 119.359 182.103 118.151C182.103 116.942 181.623 115.783 180.768 114.928L174.021 121.675Z" stroke="#00084D"/>
<path d="M189.676 137.329C190.611 138.264 191.879 138.789 193.2 138.789C194.522 138.789 195.789 138.264 196.724 137.329C197.659 136.395 198.184 135.127 198.184 133.806C198.184 132.484 197.659 131.216 196.724 130.282L195.301 128.858C194.366 127.923 193.099 127.398 191.777 127.398C190.455 127.398 189.187 127.923 188.253 128.858C187.318 129.792 186.793 131.06 186.793 132.382C186.793 133.703 187.318 134.971 188.253 135.905L189.676 137.329Z" fill="#00084D" stroke="#00084D"/>
<path d="M208.109 84.7405C207.647 84.2778 207.097 83.9105 206.493 83.66C205.888 83.4094 205.24 83.2808 204.586 83.2808C203.931 83.2808 203.283 83.4094 202.679 83.66C202.074 83.9105 201.524 84.2769 201.061 84.7396C200.599 85.2032 200.231 85.752 199.982 86.357C199.731 86.9612 199.602 87.6096 199.602 88.2641C199.602 88.9185 199.731 89.5661 199.982 90.1712C200.231 90.7753 200.599 91.325 201.061 91.7877L202.484 93.2116C203.419 94.1464 204.687 94.6713 206.009 94.6713C207.33 94.6713 208.598 94.1464 209.532 93.2116C210.467 92.2768 210.992 91.0097 210.992 89.688C210.992 88.3663 210.467 87.0983 209.532 86.1635L208.109 84.7405Z" fill="#00084D" stroke="#00084D"/>
<path d="M203.908 123.098C204.843 124.033 206.111 124.558 207.433 124.558C208.754 124.558 210.021 124.033 210.956 123.098C211.891 122.164 212.416 120.896 212.416 119.574C212.416 118.252 211.891 116.985 210.956 116.05L209.533 114.627C209.07 114.164 208.521 113.797 207.917 113.547C207.312 113.296 206.664 113.167 206.01 113.167C205.355 113.167 204.707 113.296 204.102 113.547C203.497 113.796 202.948 114.164 202.485 114.626C202.022 115.089 201.655 115.639 201.405 116.244C201.154 116.848 201.025 117.496 201.025 118.151C201.025 118.805 201.154 119.453 201.405 120.058C201.655 120.662 202.022 121.212 202.485 121.674L203.908 123.098Z" fill="#00084D" stroke="#00084D"/>
<path d="M225.187 101.818C225.884 102.515 226.358 103.403 226.55 104.37C226.743 105.337 226.644 106.339 226.266 107.249C225.889 108.16 225.251 108.938 224.431 109.485C223.611 110.033 222.648 110.325 221.663 110.325L225.187 101.818ZM225.187 101.818L223.764 100.395ZM225.187 101.818L223.764 100.395ZM223.764 100.395C222.829 99.4605 221.562 98.9355 220.24 98.9355ZM223.764 100.395L220.24 98.9355ZM220.24 98.9355C218.918 98.9355 217.65 99.4605 216.716 100.395ZM220.24 98.9355L216.716 100.395ZM216.716 100.395C215.782 101.33 215.256 102.597 215.256 103.919ZM216.716 100.395L215.256 103.919ZM215.256 103.919C215.256 105.241 215.781 106.509 216.716 107.442ZM215.256 103.919L216.716 107.442ZM216.716 107.442L218.139 108.866C218.601 109.33 219.15 109.697 219.755 109.948C220.36 110.197 221.008 110.326 221.662 110.325L216.716 107.442Z" fill="#00084D"/>
<path d="M225.187 101.818C225.884 102.515 226.358 103.403 226.55 104.37C226.743 105.337 226.644 106.339 226.266 107.249C225.889 108.16 225.251 108.938 224.431 109.485C223.611 110.033 222.648 110.325 221.663 110.325L225.187 101.818ZM225.187 101.818L223.764 100.395M223.764 100.395C222.829 99.4605 221.562 98.9355 220.24 98.9355M223.764 100.395L220.24 98.9355M220.24 98.9355C218.918 98.9355 217.65 99.4605 216.716 100.395M220.24 98.9355L216.716 100.395M216.716 100.395C215.782 101.33 215.256 102.597 215.256 103.919M216.716 100.395L215.256 103.919M215.256 103.919C215.256 105.241 215.781 106.509 216.716 107.442M215.256 103.919L216.716 107.442M216.716 107.442L218.139 108.866C218.601 109.33 219.15 109.697 219.755 109.948C220.36 110.197 221.008 110.326 221.662 110.325L216.716 107.442Z" stroke="#00084D"/>
<path d="M286.782 155.155H249.022C244.805 155.141 240.725 156.648 237.529 159.398C234.332 162.147 232.234 165.957 231.618 170.129H120.116V68.0668C120.121 64.0967 121.7 60.291 124.507 57.4832C127.314 54.6763 131.12 53.0973 135.09 53.093C138 53.0981 140.824 54.0772 143.113 55.8744C145.402 57.6716 147.024 60.1828 147.72 63.0085C141.947 69.4558 138.862 77.8707 139.1 86.5225C139.34 95.1734 142.883 103.405 149.004 109.525L151.306 111.827C151.728 112.249 152.231 112.585 152.784 112.814C153.337 113.044 153.929 113.161 154.529 113.161C155.127 113.161 155.719 113.044 156.272 112.814C156.825 112.585 157.328 112.249 157.75 111.827L199.182 70.3949C199.606 69.9714 199.942 69.4694 200.17 68.9164C200.399 68.3634 200.518 67.7703 200.518 67.1721C200.518 66.5739 200.399 65.9808 200.17 65.4277C199.942 64.8747 199.606 64.3728 199.182 63.9493L196.881 61.6485C191.484 56.2672 184.432 52.8612 176.862 51.9801C169.293 51.0981 161.646 52.7922 155.157 56.7879C153.377 52.9652 150.544 49.7288 146.99 47.4595C143.435 45.1903 139.307 43.9828 135.09 43.9785C128.704 43.9853 122.581 46.5256 118.065 51.0419C113.549 55.5574 111.009 61.68 111.001 68.0668V170.129H96.0273V179.244H111.001V220.41C110.989 232.955 115.162 245.145 122.861 255.05L115.197 262.714C113.859 264.042 112.797 265.622 112.071 267.361C111.345 269.101 110.969 270.967 110.965 272.852C110.962 274.737 111.331 276.605 112.051 278.347C112.77 280.09 113.827 281.673 115.16 283.006C116.493 284.339 118.076 285.396 119.818 286.116C121.561 286.835 123.428 287.204 125.314 287.201C127.199 287.198 129.065 286.822 130.805 286.096C132.544 285.37 134.124 284.308 135.452 282.97L145.768 272.58C152.698 275.463 160.136 276.932 167.642 276.9H304.36C311.867 276.932 319.305 275.463 326.236 272.58L336.551 282.931C337.876 284.271 339.453 285.335 341.192 286.064C342.929 286.793 344.794 287.171 346.679 287.177C348.563 287.183 350.431 286.816 352.174 286.099C353.917 285.381 355.5 284.326 356.834 282.995C358.168 281.663 359.225 280.081 359.946 278.34C360.667 276.598 361.037 274.731 361.035 272.847C361.032 270.962 360.657 269.097 359.932 267.357C359.206 265.618 358.144 264.039 356.806 262.711L349.142 255.048C356.84 245.144 361.013 232.954 361.001 220.41V179.244H375.975V170.129H304.186C303.57 165.957 301.472 162.147 298.276 159.398C295.08 156.648 290.999 155.141 286.782 155.155ZM189.492 67.1993L154.552 102.139C150.314 97.4145 148.045 91.2459 148.212 84.9009C148.379 78.5558 150.968 72.5159 155.45 68.0208C155.972 67.593 156.457 67.1227 156.9 66.6139H157.226V66.4836C161.802 62.7265 167.571 60.7333 173.49 60.8637C179.409 60.9941 185.086 63.2403 189.492 67.1959V67.1993ZM240.559 215.702H295.246V231.978H240.559V215.702ZM249.022 164.269H286.782C289.026 164.273 291.178 165.165 292.764 166.752C294.351 168.338 295.243 170.489 295.246 172.734V206.587H240.559V172.734C240.561 170.489 241.454 168.338 243.04 166.752C244.627 165.165 246.778 164.273 249.022 164.269ZM129.007 276.525C128.03 277.502 126.706 278.05 125.324 278.05C123.943 278.05 122.618 277.502 121.642 276.525C120.664 275.549 120.116 274.223 120.116 272.842C120.116 271.461 120.664 270.137 121.642 269.159L129.01 261.79C131.573 264.185 134.351 266.339 137.308 268.224L129.007 276.525ZM351.887 272.842C351.886 273.872 351.581 274.88 351.008 275.736C350.436 276.592 349.623 277.26 348.671 277.654C347.719 278.048 346.672 278.151 345.662 277.95C344.651 277.749 343.723 277.253 342.996 276.524L334.694 268.224C337.652 266.339 340.43 264.186 342.992 261.791L350.361 269.159C350.846 269.642 351.231 270.216 351.492 270.848C351.755 271.48 351.888 272.158 351.887 272.842ZM351.887 220.41C351.866 232.994 346.848 245.056 337.935 253.941C329.022 262.825 316.945 267.805 304.36 267.785H167.642C155.058 267.805 142.98 262.825 134.068 253.941C125.154 245.056 120.136 232.994 120.116 220.41V179.244H231.444V236.535C231.444 237.744 231.924 238.903 232.779 239.758C233.634 240.613 234.792 241.092 236.002 241.092H299.803C301.011 241.092 302.171 240.613 303.026 239.758C303.881 238.903 304.36 237.744 304.36 236.535V179.244H351.887V220.41Z" fill="#00084D"/>
<mask id="mask0_991_243" style="mask-type:luminance" maskUnits="userSpaceOnUse" x="95" y="43" width="283" height="246">
<path d="M377.236 43.126H95.1777V288.542H377.236V43.126Z" fill="white"/>
<path d="M286.784 155.154H249.024C244.807 155.141 240.727 156.647 237.531 159.397C234.334 162.147 232.236 165.957 231.62 170.129H120.118V68.0663C120.123 64.0962 121.702 60.2906 124.509 57.4828C127.316 54.6758 131.122 53.0968 135.092 53.0925C138.002 53.0976 140.826 54.0768 143.115 55.8739C145.404 57.6711 147.026 60.1823 147.722 63.008C141.949 69.4553 138.864 77.8702 139.102 86.522C139.342 95.1729 142.885 103.405 149.006 109.525L151.308 111.826C151.73 112.249 152.233 112.585 152.786 112.814C153.339 113.043 153.931 113.161 154.53 113.161C155.129 113.161 155.721 113.043 156.274 112.814C156.827 112.585 157.33 112.249 157.752 111.826L199.184 70.3944C199.608 69.9709 199.944 69.469 200.172 68.9159C200.401 68.3629 200.52 67.7698 200.52 67.1716C200.52 66.5734 200.401 65.9803 200.172 65.4273C199.944 64.8742 199.608 64.3723 199.184 63.9488L196.883 61.648C191.486 56.2668 184.434 52.8607 176.864 51.9796C169.295 51.0977 161.648 52.7917 155.159 56.7874C153.379 52.9647 150.546 49.7283 146.992 47.459C143.437 45.1898 139.309 43.9823 135.092 43.978C128.705 43.9848 122.583 46.5251 118.066 51.0414C113.551 55.5569 111.011 61.6795 111.003 68.0663V170.129H96.0293V179.243H111.003V220.409C110.991 232.955 115.164 245.145 122.863 255.05L115.199 262.714C113.861 264.042 112.799 265.621 112.073 267.361C111.347 269.101 110.971 270.967 110.967 272.852C110.964 274.737 111.333 276.605 112.053 278.347C112.772 280.089 113.829 281.672 115.162 283.005C116.495 284.339 118.078 285.395 119.82 286.115C121.563 286.835 123.43 287.204 125.316 287.2C127.201 287.198 129.067 286.822 130.807 286.096C132.546 285.37 134.126 284.307 135.454 282.969L145.77 272.579C152.7 275.463 160.138 276.932 167.644 276.9H304.362C311.869 276.932 319.307 275.463 326.238 272.579L336.553 282.93C337.878 284.271 339.455 285.335 341.194 286.063C342.931 286.792 344.796 287.17 346.681 287.176C348.565 287.182 350.433 286.816 352.176 286.098C353.919 285.381 355.502 284.326 356.836 282.994C358.17 281.662 359.227 280.081 359.948 278.34C360.669 276.598 361.039 274.731 361.037 272.847C361.034 270.962 360.659 269.097 359.934 267.356C359.208 265.617 358.146 264.038 356.808 262.711L349.144 255.047C356.842 245.144 361.015 232.954 361.003 220.409V179.243H375.977V170.129H304.188C303.572 165.957 301.474 162.147 298.278 159.397C295.082 156.647 291.001 155.141 286.784 155.154ZM189.494 67.1989L154.554 102.138C150.316 97.4141 148.046 91.2454 148.214 84.9004C148.381 78.5553 150.97 72.5154 155.452 68.0203C155.974 67.5926 156.459 67.1222 156.902 66.6134H157.227V66.4831C161.803 62.726 167.573 60.7328 173.492 60.8632C179.411 60.9936 185.088 63.2398 189.494 67.1955V67.1989ZM240.561 215.701H295.248V231.977H240.561V215.701ZM249.024 164.269H286.784C289.028 164.272 291.18 165.164 292.766 166.751C294.353 168.338 295.245 170.489 295.248 172.733V206.587H240.561V172.733C240.563 170.489 241.456 168.338 243.042 166.751C244.629 165.164 246.78 164.272 249.024 164.269ZM129.009 276.525C128.032 277.501 126.708 278.05 125.326 278.05C123.945 278.05 122.62 277.501 121.644 276.525C120.666 275.548 120.118 274.223 120.118 272.842C120.118 271.46 120.666 270.136 121.644 269.159L129.012 261.789C131.575 264.185 134.353 266.338 137.31 268.223L129.009 276.525ZM351.889 272.842C351.888 273.872 351.583 274.879 351.01 275.736C350.438 276.592 349.625 277.259 348.673 277.654C347.721 278.047 346.674 278.151 345.664 277.949C344.653 277.748 343.725 277.252 342.998 276.524L334.696 268.223C337.654 266.338 340.432 264.186 342.994 261.79L350.363 269.159C350.848 269.642 351.233 270.215 351.494 270.848C351.757 271.48 351.89 272.157 351.889 272.842ZM351.889 220.409C351.868 232.994 346.85 245.055 337.937 253.94C329.024 262.825 316.947 267.805 304.362 267.784H167.644C155.06 267.805 142.982 262.825 134.07 253.94C125.156 245.055 120.138 232.994 120.118 220.409V179.243H231.446V236.535C231.446 237.744 231.926 238.903 232.781 239.757C233.636 240.612 234.794 241.092 236.004 241.092H299.805C301.013 241.092 302.173 240.612 303.028 239.757C303.883 238.903 304.362 237.744 304.362 236.535V179.243H351.889V220.409Z" fill="black"/>
</mask>
<g mask="url(#mask0_991_243)">
<path d="M286.784 155.154H249.024C244.807 155.141 240.727 156.647 237.531 159.397C234.334 162.147 232.236 165.957 231.62 170.129H120.118V68.0663C120.123 64.0962 121.702 60.2906 124.509 57.4828C127.316 54.6758 131.122 53.0968 135.092 53.0925C138.002 53.0976 140.826 54.0768 143.115 55.8739C145.404 57.6711 147.026 60.1823 147.722 63.008C141.949 69.4553 138.864 77.8702 139.102 86.522C139.342 95.1729 142.885 103.405 149.006 109.525L151.308 111.826C151.73 112.249 152.233 112.585 152.786 112.814C153.339 113.043 153.931 113.161 154.53 113.161C155.129 113.161 155.721 113.043 156.274 112.814C156.827 112.585 157.33 112.249 157.752 111.826L199.184 70.3944C199.608 69.9709 199.944 69.469 200.172 68.9159C200.401 68.3629 200.52 67.7698 200.52 67.1716C200.52 66.5734 200.401 65.9803 200.172 65.4273C199.944 64.8742 199.608 64.3723 199.184 63.9488L196.883 61.648C191.486 56.2668 184.434 52.8607 176.864 51.9796C169.295 51.0977 161.648 52.7917 155.159 56.7874C153.379 52.9647 150.546 49.7283 146.992 47.459C143.437 45.1898 139.309 43.9823 135.092 43.978C128.705 43.9848 122.583 46.5251 118.066 51.0414C113.551 55.5569 111.011 61.6795 111.003 68.0663V170.129H96.0293V179.243H111.003V220.409C110.991 232.955 115.164 245.145 122.863 255.05L115.199 262.714C113.861 264.042 112.799 265.621 112.073 267.361C111.347 269.101 110.971 270.967 110.967 272.852C110.964 274.737 111.333 276.605 112.053 278.347C112.772 280.089 113.829 281.672 115.162 283.005C116.495 284.339 118.078 285.395 119.82 286.115C121.563 286.835 123.43 287.204 125.316 287.2C127.201 287.198 129.067 286.822 130.807 286.096C132.546 285.37 134.126 284.307 135.454 282.969L145.77 272.579C152.7 275.463 160.138 276.932 167.644 276.9H304.362C311.869 276.932 319.307 275.463 326.238 272.579L336.553 282.93C337.878 284.271 339.455 285.335 341.194 286.063C342.931 286.792 344.796 287.17 346.681 287.176C348.565 287.182 350.433 286.816 352.176 286.098C353.919 285.381 355.502 284.326 356.836 282.994C358.17 281.662 359.227 280.081 359.948 278.34C360.669 276.598 361.039 274.731 361.037 272.847C361.034 270.962 360.659 269.097 359.934 267.356C359.208 265.617 358.146 264.038 356.808 262.711L349.144 255.047C356.842 245.144 361.015 232.954 361.003 220.409V179.243H375.977V170.129H304.188C303.572 165.957 301.474 162.147 298.278 159.397C295.082 156.647 291.001 155.141 286.784 155.154ZM189.494 67.1989L154.554 102.138C150.316 97.4141 148.046 91.2454 148.214 84.9004C148.381 78.5553 150.97 72.5154 155.452 68.0203C155.974 67.5926 156.459 67.1222 156.902 66.6134H157.227V66.4831C161.803 62.726 167.573 60.7328 173.492 60.8632C179.411 60.9936 185.088 63.2398 189.494 67.1955V67.1989ZM240.561 215.701H295.248V231.977H240.561V215.701ZM249.024 164.269H286.784C289.028 164.272 291.18 165.164 292.766 166.751C294.353 168.338 295.245 170.489 295.248 172.733V206.587H240.561V172.733C240.563 170.489 241.456 168.338 243.042 166.751C244.629 165.164 246.78 164.272 249.024 164.269ZM129.009 276.525C128.032 277.501 126.708 278.05 125.326 278.05C123.945 278.05 122.62 277.501 121.644 276.525C120.666 275.548 120.118 274.223 120.118 272.842C120.118 271.46 120.666 270.136 121.644 269.159L129.012 261.789C131.575 264.185 134.353 266.338 137.31 268.223L129.009 276.525ZM351.889 272.842C351.888 273.872 351.583 274.879 351.01 275.736C350.438 276.592 349.625 277.259 348.673 277.654C347.721 278.047 346.674 278.151 345.664 277.949C344.653 277.748 343.725 277.252 342.998 276.524L334.696 268.223C337.654 266.338 340.432 264.186 342.994 261.79L350.363 269.159C350.848 269.642 351.233 270.215 351.494 270.848C351.757 271.48 351.89 272.157 351.889 272.842ZM351.889 220.409C351.868 232.994 346.85 245.055 337.937 253.94C329.024 262.825 316.947 267.805 304.362 267.784H167.644C155.06 267.805 142.982 262.825 134.07 253.94C125.156 245.055 120.138 232.994 120.118 220.409V179.243H231.446V236.535C231.446 237.744 231.926 238.903 232.781 239.757C233.636 240.612 234.794 241.092 236.004 241.092H299.805C301.013 241.092 302.173 240.612 303.028 239.757C303.883 238.903 304.362 237.744 304.362 236.535V179.243H351.889V220.409Z" stroke="#00084D" stroke-width="2"/>
</g>
<path d="M305.889 118.697C305.889 120.018 306.414 121.286 307.348 122.22C308.283 123.155 309.55 123.68 310.872 123.68H366.211C367.533 123.68 368.8 123.155 369.734 122.22C370.669 121.286 371.194 120.018 371.194 118.697C371.194 117.375 370.669 116.107 369.734 115.173C368.8 114.238 367.533 113.713 366.211 113.713H310.872C309.55 113.713 308.283 114.238 307.348 115.173C306.414 116.107 305.889 117.375 305.889 118.697Z" fill="#00084D" stroke="#00084D"/>
<path d="M314.128 77.9062H258.79C257.468 77.9062 256.2 78.4312 255.266 79.3651C254.332 80.2999 253.807 81.5679 253.807 82.8896C253.807 84.2112 254.332 85.4784 255.266 86.4132C256.2 87.348 257.468 87.8729 258.79 87.8729H314.128C315.45 87.8729 316.718 87.348 317.652 86.4132C318.586 85.4784 319.111 84.2112 319.111 82.8896C319.111 81.5679 318.586 80.2999 317.652 79.3651C316.718 78.4312 315.45 77.9062 314.128 77.9062Z" fill="#00084D" stroke="#00084D"/>
<path d="M397.803 330.553H357.779V315.803C357.779 314.348 357.201 312.952 356.174 311.924C355.145 310.895 353.751 310.317 352.297 310.317H281.511C280.056 310.317 278.662 310.895 277.634 311.924C276.606 312.952 276.028 314.348 276.028 315.803V330.553H226.319V315.803C226.319 314.348 225.742 312.952 224.713 311.924C223.686 310.895 222.291 310.317 220.837 310.317H150.05C148.597 310.317 147.202 310.895 146.174 311.924C145.145 312.952 144.568 314.348 144.568 315.803V330.553H104.544C103.091 330.553 101.696 331.131 100.668 332.16C99.6403 333.189 99.0625 334.584 99.0625 336.038V356.275C99.0625 357.73 99.6403 359.125 100.668 360.153C101.696 361.182 103.091 361.759 104.544 361.759H109.175V462.515C109.175 463.969 109.753 465.364 110.78 466.393C111.809 467.422 113.203 468 114.657 468H387.69C389.145 468 390.539 467.422 391.567 466.393C392.595 465.364 393.173 463.969 393.173 462.515V361.759H397.803C399.257 361.759 400.651 361.182 401.679 360.153C402.707 359.125 403.285 357.73 403.285 356.275V336.038C403.285 334.584 402.707 333.189 401.679 332.16C400.651 331.131 399.257 330.553 397.803 330.553ZM286.993 321.287H346.815V330.553H286.993V321.287ZM155.532 321.287H215.354V330.553H155.532V321.287ZM245.691 457.03H120.139V361.759H245.691V457.03ZM382.208 457.03H256.656V361.759H382.208V457.03ZM392.321 350.79H110.027V341.524H392.321V350.79Z" fill="#00084D" stroke="#00084D"/>
<path d="M225.891 391.262H225.465V391.688V411.924V412.35H225.891H236.003H236.429V411.924V391.688V391.262H236.003H225.891Z" fill="#00084D" stroke="#00084D"/>
<path d="M266.342 391.729H265.916V392.156V412.392V412.818H266.342H276.454H276.881V412.392V392.156V391.729H276.454H266.342Z" fill="#00084D" stroke="#00084D"/>
<path d="M240.781 34.1853C240.788 32.4197 242.224 30.9932 243.989 31C245.743 31.0068 247.164 32.4291 247.171 34.1853V37.3962C247.167 39.1542 245.746 40.5806 243.989 40.5875C242.221 40.5943 240.785 39.1644 240.781 37.3962V34.1853Z" fill="#00084D"/>
<path d="M231.203 43.7974C231.196 42.0318 232.621 40.5942 234.385 40.5874H237.592C239.36 40.5908 240.788 42.0292 240.781 43.7974C240.774 45.5562 239.35 46.9793 237.592 46.9827H234.385C232.63 46.9759 231.21 45.5537 231.203 43.7974Z" fill="#00084D"/>
<path d="M247.17 43.7974C247.163 42.0216 248.603 40.5806 250.377 40.5874H253.559C255.333 40.5806 256.774 42.0216 256.767 43.7974C256.76 45.5639 255.324 46.9895 253.559 46.9827H250.377C248.613 46.9895 247.177 45.5639 247.17 43.7974Z" fill="#00084D"/>
<path d="M240.781 50.1678C240.788 48.4021 242.224 46.9756 243.989 46.9824C245.743 46.9893 247.164 48.4115 247.171 50.1678V53.3786C247.164 55.1349 245.743 56.5571 243.989 56.5639C242.224 56.5707 240.788 55.1442 240.781 53.3786V50.1678Z" fill="#00084D"/>
<path d="M412.061 245.516C412.067 243.751 413.503 242.324 415.268 242.331C417.023 242.338 418.443 243.76 418.45 245.516V248.727C418.446 250.485 417.025 251.912 415.268 251.919C413.501 251.925 412.064 250.495 412.061 248.727V245.516Z" fill="#00084D"/>
<path d="M402.482 255.128C402.476 253.363 403.9 251.925 405.664 251.918H408.872C410.639 251.922 412.067 253.36 412.06 255.128C412.054 256.887 410.629 258.31 408.872 258.314H405.664C403.91 258.307 402.489 256.885 402.482 255.128Z" fill="#00084D"/>
<path d="M418.451 255.128C418.444 253.353 419.885 251.912 421.659 251.918H424.841C426.615 251.912 428.055 253.353 428.048 255.128C428.041 256.895 426.605 258.321 424.841 258.314H421.659C419.894 258.321 418.458 256.895 418.451 255.128Z" fill="#00084D"/>
<path d="M412.061 261.499C412.067 259.733 413.503 258.307 415.268 258.314C417.023 258.32 418.443 259.743 418.45 261.499V264.71C418.443 266.466 417.023 267.888 415.268 267.895C413.503 267.902 412.067 266.475 412.061 264.71V261.499Z" fill="#00084D"/>
<path d="M80.5781 270.975C80.5849 269.267 82.0208 267.888 83.7856 267.895C85.5401 267.902 86.9607 269.276 86.9675 270.975V274.077C86.9641 275.777 85.5427 277.156 83.7856 277.163C82.0182 277.17 80.5815 275.788 80.5781 274.077V270.975Z" fill="#00084D"/>
<path d="M71 280.267C70.9932 278.559 72.418 277.17 74.1819 277.163H77.3894C79.1567 277.166 80.5849 278.556 80.5781 280.267C80.5713 281.967 79.1465 283.342 77.3894 283.345H74.1819C72.4274 283.339 71.0068 281.964 71 280.267Z" fill="#00084D"/>
<path d="M86.9668 280.267C86.96 278.55 88.4001 277.156 90.1743 277.163H93.3562C95.1303 277.156 96.5704 278.55 96.5636 280.267C96.5568 281.973 95.1209 283.352 93.3562 283.345H90.1743C88.4095 283.352 86.9736 281.973 86.9668 280.267Z" fill="#00084D"/>
<path d="M80.5781 286.425C80.5849 284.717 82.0208 283.338 83.7856 283.345C85.5401 283.352 86.9607 284.727 86.9675 286.425V289.527C86.9607 291.226 85.5401 292.6 83.7856 292.607C82.0208 292.614 80.5849 291.235 80.5781 289.527V286.425Z" fill="#00084D"/>
</svg>
