<svg width="31" height="23" viewBox="0 0 31 23" fill="none" xmlns="http://www.w3.org/2000/svg">
<path d="M19.375 0H28.0938C29.6964 0 31 1.28963 31 2.875V11.5C31 13.0854 29.6964 14.375 28.0938 14.375H24.1833C24.1833 14.375 25.6501 21.8392 25.6539 21.8587C25.7661 22.4296 25.2891 23 24.7031 23H21.5646C20.7222 23 19.9734 22.4549 19.7184 21.6654L16.8983 15.0479C16.8822 15.01 16.8685 14.9712 16.8576 14.9318C16.5993 14.0138 16.4688 13.0643 16.4688 12.1102V2.875C16.4688 1.28963 17.7724 0 19.375 0ZM18.4062 12.1102C18.4062 12.8711 18.5079 13.6282 18.708 14.361L21.5235 20.9673C21.5395 21.0052 21.5537 21.044 21.5646 21.0833H23.5277C23.5277 21.0833 22.0583 13.6059 22.057 13.5996C21.9424 13.016 22.4079 12.4583 23.0078 12.4583H28.0938C28.6278 12.4583 29.0625 12.0283 29.0625 11.5V2.875C29.0625 2.3467 28.6278 1.91667 28.0938 1.91667H19.375C18.841 1.91667 18.4062 2.3467 18.4062 2.875V12.1102Z" fill="#F7941D"/>
<path d="M2.90625 0H11.625C13.2276 0 14.5312 1.28963 14.5312 2.875V11.5C14.5312 13.0854 13.2276 14.375 11.625 14.375H7.71405C7.71405 14.375 9.18199 21.8426 9.18514 21.8587C9.29843 22.435 8.82593 23 8.23438 23H5.0954C4.25247 23 3.50415 22.4549 3.24967 21.665L0.429515 15.0479C0.413434 15.01 0.400191 14.9711 0.388837 14.9318C0.130559 14.0128 0 13.0634 0 12.1102V2.875C0 1.28963 1.30365 0 2.90625 0ZM1.9375 12.1102C1.9375 12.8701 2.03967 13.6268 2.24023 14.361L5.05566 20.9673C5.07175 21.0052 5.08405 21.0436 5.0954 21.0833H7.05939C7.05939 21.0833 5.58962 13.6064 5.58829 13.5996C5.47591 13.0279 5.93107 12.4583 6.53906 12.4583H11.625C12.1595 12.4583 12.5938 12.0283 12.5938 11.5V2.875C12.5938 2.3467 12.1595 1.91667 11.625 1.91667H2.90625C2.37173 1.91667 1.9375 2.3467 1.9375 2.875V12.1102Z" fill="#F7941D"/>
</svg>
