<svg width="500" height="500" viewBox="0 0 500 500" fill="none" xmlns="http://www.w3.org/2000/svg">
<path d="M55.1602 231.305C55.1732 227.956 57.8961 225.252 61.2411 225.265C64.5681 225.278 67.2621 227.974 67.2751 231.305V237.391C67.2681 240.726 64.5721 243.43 61.2411 243.443C57.8911 243.456 55.1672 240.745 55.1602 237.391V231.305Z" fill="#00084D"/>
<path d="M37 249.529C36.987 246.181 39.688 243.456 43.034 243.443H49.1151C52.4651 243.449 55.1731 246.176 55.1601 249.529C55.1471 252.864 52.4461 255.563 49.1151 255.569H43.034C39.707 255.556 37.013 252.86 37 249.529Z" fill="#00084D"/>
<path d="M67.2754 249.529C67.2624 246.163 69.9924 243.43 73.3564 243.443H79.3895C82.7535 243.43 85.4834 246.163 85.4704 249.529C85.4574 252.878 82.7355 255.582 79.3895 255.569H73.3564C70.0104 255.582 67.2884 252.878 67.2754 249.529Z" fill="#00084D"/>
<path d="M55.1602 261.609C55.1732 258.26 57.8961 255.556 61.2411 255.569C64.5681 255.582 67.2621 258.279 67.2751 261.609V267.695C67.2621 271.026 64.5681 273.722 61.2411 273.735C57.8961 273.748 55.1732 271.044 55.1602 267.695V261.609Z" fill="#00084D"/>
<path d="M244.426 84.7403C244.439 81.3913 247.162 78.6872 250.507 78.7002C253.834 78.7132 256.527 81.4093 256.54 84.7403V90.8262C256.534 94.1612 253.838 96.8653 250.507 96.8783C247.157 96.8913 244.432 94.1802 244.426 90.8262V84.7403Z" fill="#00084D"/>
<path d="M226.266 102.964C226.253 99.6159 228.954 96.8909 232.3 96.8779H238.381C241.731 96.8839 244.439 99.6109 244.426 102.964C244.413 106.299 241.712 108.998 238.381 109.004H232.3C228.973 108.991 226.279 106.295 226.266 102.964Z" fill="#00084D"/>
<path d="M256.539 102.964C256.526 99.598 259.257 96.865 262.62 96.878H268.654C272.018 96.865 274.748 99.598 274.735 102.964C274.722 106.313 272 109.017 268.654 109.004H262.62C259.275 109.017 256.553 106.313 256.539 102.964Z" fill="#00084D"/>
<path d="M244.426 115.044C244.439 111.695 247.162 108.991 250.507 109.004C253.834 109.017 256.527 111.714 256.54 115.044V121.131C256.527 124.461 253.834 127.157 250.507 127.17C247.162 127.183 244.439 124.479 244.426 121.131V115.044Z" fill="#00084D"/>
<path d="M438.044 260.349H436.844V229.63C436.844 176.283 393.402 132.888 340 132.888C286.603 132.888 243.16 176.283 243.16 229.63V260.349C228.441 259.719 215.967 271.528 216.004 286.279C215.948 301.301 228.872 313.124 243.801 312.209L245.288 327.946C242.027 325.931 238.222 324.711 234.113 324.711H184.688V67.796C184.688 50.261 170.409 36 152.86 36C135.311 36 121.032 50.261 121.032 67.796V303.361C121.032 307.295 124.222 310.478 128.156 310.478C132.09 310.478 135.28 307.295 135.28 303.361V67.796C135.28 58.114 143.166 50.233 152.86 50.233C162.555 50.233 170.44 58.114 170.44 67.796V324.711H71.6067C59.8217 324.711 50.2347 334.288 50.2347 346.061V367.057C50.2347 375.109 54.7727 382.05 61.3787 385.686L38.5127 430.621C36.6627 434.248 36.5027 438.488 38.0707 442.234C39.7097 446.147 43.0207 449.135 47.1567 450.442C50.1307 451.387 52.4127 453.027 55.0497 454.924C60.0517 458.524 66.2747 463 77.9337 463C89.5937 463 95.8167 458.524 100.819 454.924C105.171 451.79 108.315 449.531 115.376 449.531C122.434 449.531 125.579 451.79 129.927 454.924C134.925 458.524 141.148 463 152.801 463C164.464 463 170.687 458.524 175.693 454.924C180.044 451.797 183.192 449.531 190.257 449.531C197.332 449.531 200.48 451.797 204.838 454.924C209.844 458.524 216.07 463 227.737 463C239.407 463 245.637 458.524 250.643 454.924C254.141 451.91 258.094 450.875 261.968 448.811C268.474 457.482 278.817 463 290.464 463H389.54C408.018 463 423.264 449.142 425.003 430.76L434.124 334.226C434.492 330.313 431.619 326.845 427.699 326.477C423.765 325.962 420.307 328.972 419.939 332.891L410.818 429.425C409.775 440.448 400.626 448.767 389.54 448.767H290.464C279.375 448.767 270.226 440.448 269.186 429.425L258.112 312.209H438.044C452.358 312.209 464 300.575 464 286.279C464 271.983 452.358 260.349 438.044 260.349ZM252.202 401.131L244.341 385.686C246.612 384.436 248.613 382.809 250.286 380.854L252.202 401.131ZM64.4827 346.061C64.4827 342.135 67.6797 338.945 71.6067 338.945H234.113C238.04 338.945 241.237 342.135 241.237 346.061V367.057C241.237 370.984 238.04 374.174 234.113 374.174H71.6067C67.6797 374.174 64.4827 370.984 64.4827 367.057V346.061ZM242.319 443.366C237.964 446.501 234.812 448.767 227.737 448.767C220.665 448.767 217.517 446.501 213.159 443.373C208.153 439.773 201.923 435.298 190.257 435.298C178.594 435.298 172.371 439.773 167.365 443.373C163.014 446.501 159.866 448.767 152.801 448.767C145.747 448.767 142.602 446.508 138.254 443.373C133.256 439.773 127.033 435.298 115.376 435.298C103.717 435.298 97.4937 439.773 92.4917 443.373C88.1397 446.508 84.9957 448.767 77.9337 448.767C70.8727 448.767 67.7287 446.508 63.3767 443.373C60.2047 441.087 56.6037 438.502 51.2127 437.07L75.9787 388.407H107.521C104.661 395.448 98.8217 404.982 87.4337 408.499C83.6767 409.66 81.5687 413.642 82.7307 417.395C83.8847 421.188 87.9847 423.252 91.6427 422.093C111.74 415.89 119.722 397.906 122.61 388.407H183.11C185.998 397.906 193.98 415.89 214.077 422.093C217.735 423.253 221.835 421.188 222.989 417.395C224.151 413.642 222.043 409.66 218.286 408.499C207.008 405.015 201.145 395.466 198.249 388.407H229.733L254.27 436.861C249.105 438.488 245.501 441.08 242.319 443.366ZM257.408 229.63C257.408 184.136 294.461 147.121 340 147.121C385.544 147.121 422.596 184.136 422.596 229.63V260.349H257.408V229.63ZM438.044 297.975H241.96C235.504 297.975 230.252 292.728 230.252 286.279C230.252 279.829 235.504 274.582 241.96 274.582H438.044C444.5 274.582 449.752 279.829 449.752 286.279C449.752 292.728 444.5 297.975 438.044 297.975Z" fill="#00084D"/>
</svg>
