<svg width="500" height="500" viewBox="0 0 500 500" fill="none" xmlns="http://www.w3.org/2000/svg">
<path d="M60.1094 286.407C60.1224 283.031 62.8674 280.305 66.2404 280.318C69.5944 280.331 72.3104 283.049 72.3234 286.407V292.544C72.3174 295.907 69.5994 298.633 66.2404 298.646C62.8624 298.659 60.1154 295.925 60.1094 292.544V286.407Z" fill="#00084D"/>
<path d="M41.8008 304.783C41.7868 301.407 44.5108 298.659 47.8838 298.646H54.0148C57.3928 298.652 60.1238 301.402 60.1108 304.783C60.0978 308.145 57.3738 310.866 54.0148 310.872H47.8838C44.5298 310.859 41.8138 308.14 41.8008 304.783Z" fill="#00084D"/>
<path d="M72.3243 304.783C72.3113 301.388 75.0643 298.633 78.4563 298.646H84.5393C87.9313 298.633 90.6843 301.388 90.6703 304.783C90.6573 308.159 87.9123 310.885 84.5393 310.872H78.4563C75.0833 310.885 72.3383 308.159 72.3243 304.783Z" fill="#00084D"/>
<path d="M60.1094 316.962C60.1224 313.586 62.8674 310.859 66.2404 310.872C69.5944 310.885 72.3104 313.604 72.3234 316.962V323.099C72.3104 326.457 69.5944 329.175 66.2404 329.188C62.8674 329.202 60.1224 326.475 60.1094 323.099V316.962Z" fill="#00084D"/>
<path d="M323.082 28.09C323.095 24.713 325.84 21.987 329.213 22C332.567 22.013 335.283 24.732 335.296 28.09V34.2271C335.29 37.5891 332.572 40.315 329.213 40.328C325.835 40.341 323.088 37.6081 323.082 34.2271V28.09Z" fill="#00084D"/>
<path d="M304.772 46.4651C304.758 43.0891 307.482 40.3411 310.855 40.3281H316.986C320.364 40.3351 323.095 43.0841 323.082 46.4651C323.069 49.8271 320.345 52.5481 316.986 52.5551H310.855C307.501 52.5411 304.785 49.8231 304.772 46.4651Z" fill="#00084D"/>
<path d="M335.297 46.4652C335.284 43.0702 338.037 40.3152 341.429 40.3282H347.512C350.904 40.3152 353.657 43.0702 353.643 46.4652C353.63 49.8422 350.885 52.5682 347.512 52.5552H341.429C338.055 52.5682 335.31 49.8422 335.297 46.4652Z" fill="#00084D"/>
<path d="M323.082 58.6437C323.095 55.2677 325.84 52.5407 329.213 52.5547C332.567 52.5677 335.283 55.2867 335.296 58.6437V64.7808C335.283 68.1388 332.567 70.8578 329.213 70.8708C325.84 70.8838 323.095 68.1578 323.082 64.7808V58.6437Z" fill="#00084D"/>
<path d="M238.699 195.286H238.691C237.296 195.318 235.94 195.761 234.795 196.559C233.65 197.358 232.766 198.476 232.254 199.775C231.742 201.073 231.624 202.494 231.916 203.86C232.208 205.225 232.896 206.473 233.894 207.449C234.892 208.425 236.156 209.085 237.527 209.346C238.899 209.607 240.317 209.457 241.603 208.916C242.89 208.374 243.989 207.466 244.761 206.303C245.534 205.14 245.946 203.775 245.946 202.379V202.371C245.937 201.43 245.741 200.5 245.372 199.634C245.002 198.768 244.466 197.984 243.792 197.325C243.119 196.667 242.323 196.148 241.449 195.798C240.575 195.448 239.64 195.274 238.699 195.286Z" fill="#00084D" stroke="#00084D" stroke-width="1.5"/>
<path d="M168.517 193.277H168.507C167.111 193.309 165.755 193.752 164.61 194.551C163.465 195.35 162.581 196.47 162.069 197.769C161.557 199.069 161.441 200.49 161.733 201.856C162.026 203.221 162.716 204.47 163.715 205.445C164.715 206.421 165.98 207.079 167.353 207.338C168.725 207.598 170.143 207.446 171.43 206.902C172.716 206.359 173.814 205.448 174.584 204.283C175.355 203.118 175.765 201.752 175.762 200.355V200.346C175.735 198.449 174.958 196.64 173.6 195.315C172.242 193.99 170.414 193.257 168.517 193.277Z" fill="#00084D" stroke="#00084D" stroke-width="1.5"/>
<path d="M215.663 249.068L215.718 249.122C208.484 253.81 202.028 253.922 197.278 252.801C192.334 251.634 189.2 249.12 188.969 248.926L188.963 248.921L188.959 248.917C187.869 248.039 186.478 247.624 185.085 247.76C183.693 247.895 182.41 248.572 181.51 249.643C180.611 250.715 180.166 252.096 180.273 253.491C180.381 254.886 181.031 256.184 182.084 257.105L182.098 257.118L182.114 257.13C187.861 261.65 194.969 264.095 202.281 264.067H202.287C209.56 263.968 216.624 261.627 222.516 257.362C223.681 256.552 224.477 255.313 224.73 253.917C224.983 252.518 224.671 251.076 223.861 249.908C223.051 248.739 221.81 247.941 220.411 247.687C219.012 247.434 217.571 247.746 216.402 248.556L215.663 249.068Z" fill="#00084D" stroke="#00084D" stroke-width="1.5"/>
<path d="M449.261 73.9631L442.432 73.3721L376.437 67.6461C364.066 66.5951 353.231 74.8561 352.259 86.1111L347.137 145.131C347.091 145.875 347.091 146.621 347.137 147.364C346.901 148.927 346.73 150.345 346.612 151.711C344.982 168.581 349.635 185.458 359.679 199.109C364.698 205.866 371.106 211.468 378.473 215.539C377.61 216.083 376.781 216.68 375.991 217.325C373.732 219.225 371.872 221.555 370.52 224.179C369.167 226.803 368.348 229.669 368.111 232.612V233.255C367.731 237.737 368.701 242.229 370.896 246.155C373.092 250.08 376.412 253.258 380.43 255.28L369.831 375.869C363.803 360.109 342.738 346.437 311.927 336.929C311.532 336.739 311.112 336.606 310.679 336.535C288.103 329.705 260.419 325.083 229.648 323.401C229.648 322.955 229.713 322.508 229.713 322.088V308.311C229.713 307.852 229.713 307.392 229.713 306.932C242.174 301.166 253.376 292.999 262.678 282.899C262.626 283.789 262.836 284.674 263.282 285.447C267.387 292.522 273.089 298.542 279.932 303.025C286.776 307.508 294.571 310.331 302.698 311.268C310.825 312.206 319.059 311.233 326.743 308.426C334.427 305.619 341.35 301.056 346.959 295.101C352.569 289.146 356.71 281.964 359.052 274.125C361.395 266.287 361.875 258.01 360.453 249.954C359.032 241.897 355.748 234.284 350.864 227.721C345.981 221.158 339.632 215.826 332.323 212.15C333.793 208.553 334.406 204.664 334.115 200.789C333.823 196.914 332.634 193.16 330.642 189.824C336.11 183.403 339.142 175.261 339.205 166.827C339.205 145.328 319.216 127.835 294.644 127.835C292.766 127.835 290.889 127.94 289.023 128.15C289.102 127.527 289.141 126.9 289.141 126.272V66.2531C289.141 59.2401 280.526 54.5251 261.207 50.9661C245.342 48.0381 224.316 46.4351 201.989 46.4351C179.663 46.4351 158.65 48.0381 142.785 50.9661C123.453 54.5251 114.837 59.2401 114.837 66.2531C114.831 66.3581 114.831 66.4641 114.837 66.5691C114.831 66.6561 114.831 66.7441 114.837 66.8311V126.259C114.843 127.401 114.984 128.539 115.257 129.647C115.041 130.125 114.903 130.636 114.85 131.158L114.299 137.803C110.037 140.62 106.076 143.868 102.479 147.495C94.0009 145.894 85.2829 146.08 76.8819 148.042C68.4799 150.004 60.5809 153.699 53.6899 158.889C46.7979 164.08 41.0659 170.652 36.8609 178.185C32.6559 185.718 30.0699 194.046 29.2679 202.636C28.4669 211.226 29.4669 219.889 32.2059 228.07C34.9449 236.251 39.3619 243.77 45.1749 250.146C50.9869 256.522 58.0659 261.614 65.9589 265.096C73.8529 268.579 82.3859 270.375 91.0139 270.37C95.8429 270.371 100.657 269.807 105.355 268.689C106.42 279.525 111.475 289.578 119.538 296.895C127.601 304.213 138.095 308.272 148.983 308.285C160.186 308.285 165.702 305.777 169.524 302.704C172.15 304.24 174.935 305.659 177.732 306.932C177.732 307.397 177.732 307.856 177.732 308.311V322.022C177.732 322.535 177.732 323.034 177.811 323.533C164.152 324.347 150.783 325.765 138.044 327.801C137.706 327.863 137.376 327.96 137.059 328.09C84.2369 336.85 46.9389 355.473 40.3719 377.996C39.6889 378.819 39.3169 379.856 39.3209 380.925V470.506C39.3209 471.726 39.8059 472.895 40.6679 473.757C41.5299 474.619 42.6989 475.103 43.9179 475.103H390.201C391.351 475.104 392.459 474.672 393.306 473.893C394.153 473.115 394.676 472.047 394.771 470.9L413.158 258.143C417.466 256.851 421.287 254.295 424.126 250.806C426.964 247.317 428.688 243.055 429.075 238.574L429.141 237.917C429.458 234.459 428.96 230.974 427.687 227.742C426.415 224.51 424.403 221.622 421.813 219.308C429.794 216.57 437.095 212.15 443.22 206.345C455.457 194.623 462.939 178.799 464.233 161.903C464.351 160.589 464.43 159.118 464.469 157.529C464.632 156.802 464.746 156.065 464.811 155.323L469.919 96.3021C470.891 85.0601 461.606 75.0401 449.261 73.9631ZM362.083 381.871C362.162 382.239 362.285 382.596 362.451 382.934V460.998L362.017 465.923H314.514V347.409C341.516 356.418 359.325 368.619 362.083 381.871ZM262.27 465.923C253.616 442.506 230.028 426.431 203.67 426.431C177.312 426.431 153.764 442.506 145.07 465.923H105.854V344.507C115.156 341.867 124.584 339.697 134.104 338.006V368.672C134.111 375.479 136.818 382.006 141.631 386.819C146.445 391.633 152.972 394.34 159.779 394.347H247.614C254.421 394.34 260.948 391.633 265.761 386.819C270.575 382.006 273.282 375.479 273.289 368.672V337.375C284.091 339.169 294.785 341.563 305.321 344.546V465.923H262.27ZM179.663 332.674C181.715 337.151 185.004 340.949 189.144 343.618C193.284 346.287 198.101 347.717 203.027 347.737H204.603C209.557 347.725 214.403 346.283 218.558 343.585C222.714 340.888 226.003 337.049 228.032 332.529C240.377 333.186 252.473 334.355 264.096 336.036V368.645C264.092 373.016 262.355 377.206 259.265 380.296C256.174 383.386 251.984 385.124 247.614 385.128H159.779C155.409 385.124 151.218 383.386 148.128 380.296C145.038 377.206 143.3 373.016 143.297 368.645V336.469C154.828 334.709 167.028 333.422 179.689 332.674H179.663ZM204.314 305.094C197.537 304.001 190.921 302.078 184.614 299.368C183.956 299.086 183.239 298.969 182.526 299.026C150.783 285.066 126.907 251.747 121.601 211.375C121.443 210.28 120.895 209.278 120.058 208.555C119.22 207.831 118.15 207.433 117.044 207.435C116.52 207.431 115.999 207.52 115.507 207.698C114.214 208.164 112.85 208.404 111.475 208.407C109.854 208.461 108.239 208.187 106.725 207.604C105.212 207.021 103.831 206.139 102.666 205.011C101.5 203.883 100.573 202.532 99.9399 201.039C99.3069 199.545 98.9809 197.94 98.9809 196.318C98.9809 194.696 99.3069 193.091 99.9399 191.597C100.573 190.104 101.5 188.753 102.666 187.625C103.831 186.498 105.212 185.616 106.725 185.032C108.239 184.449 109.854 184.176 111.475 184.229C112.549 184.234 113.617 184.379 114.653 184.662C115.335 184.85 116.051 184.878 116.746 184.744C117.44 184.61 118.095 184.318 118.658 183.889C119.221 183.461 119.677 182.909 119.992 182.275C120.306 181.641 120.47 180.944 120.471 180.236V177.308L120.695 177.465C125.672 180.749 133.998 186.265 148.353 184.912C155.09 184.281 163.758 179.908 169.117 172.724C182.329 182.167 204.813 183.494 223.619 183.494C249.321 183.494 271.687 173.578 281.944 158.737C283.934 165.708 285.331 172.834 286.12 180.039C286.188 180.655 286.379 181.251 286.682 181.79C286.985 182.33 287.395 182.803 287.885 183.181C288.376 183.559 288.938 183.834 289.537 183.989C290.137 184.144 290.761 184.177 291.374 184.084C291.998 183.977 292.631 183.92 293.265 183.914C294.886 183.86 296.501 184.133 298.015 184.717C299.528 185.3 300.909 186.182 302.074 187.31C303.24 188.438 304.167 189.789 304.8 191.282C305.433 192.775 305.759 194.381 305.759 196.003C305.759 197.625 305.433 199.23 304.8 200.724C304.167 202.217 303.24 203.568 302.074 204.696C300.909 205.823 299.528 206.705 298.015 207.289C296.501 207.872 294.886 208.145 293.265 208.092C292.543 208.089 291.822 208.023 291.111 207.895C290.499 207.778 289.869 207.788 289.261 207.926C288.653 208.064 288.08 208.326 287.578 208.696C287.076 209.061 286.653 209.524 286.335 210.056C286.017 210.589 285.81 211.181 285.726 211.796C279.212 260.296 245.841 298.501 204.34 305.094H204.314ZM281.182 140.39L281.406 141.874C280.614 142.093 279.895 142.519 279.323 143.107C278.75 143.696 278.345 144.426 278.149 145.223C274.209 161.771 250.753 174.248 223.619 174.248C205.824 174.248 181.028 173.026 171.336 162.428C170.817 161.861 170.164 161.434 169.437 161.185C168.71 160.937 167.932 160.875 167.175 161.006C166.418 161.137 165.706 161.456 165.104 161.934C164.503 162.412 164.031 163.033 163.732 163.741C160.948 170.229 153.094 175.154 147.499 175.679C136.362 176.717 130.242 172.672 125.764 169.704C124.305 168.647 122.727 167.765 121.062 167.077L123.229 140.784C138.201 152.473 170.771 158.659 201.937 158.659C233.469 158.672 266.46 152.342 281.182 140.39ZM329.959 166.814C329.905 170.436 329.127 174.011 327.673 177.328C326.218 180.646 324.115 183.639 321.488 186.133C320.67 186.936 320.182 188.016 320.119 189.16C320.056 190.304 320.422 191.431 321.147 192.319C323.429 195.013 324.757 198.387 324.923 201.914C325.09 205.441 324.085 208.925 322.066 211.822C321.666 212.408 321.407 213.078 321.309 213.781C321.211 214.484 321.277 215.2 321.503 215.873C321.728 216.546 322.106 217.158 322.607 217.66C323.108 218.163 323.718 218.542 324.39 218.769C325.312 219.083 326.215 219.447 327.096 219.859C333.244 222.753 338.625 227.052 342.805 232.409C346.985 237.766 349.847 244.031 351.16 250.698C352.473 257.365 352.2 264.247 350.363 270.789C348.526 277.33 345.177 283.349 340.585 288.357C335.994 293.366 330.289 297.225 323.931 299.623C317.573 302.021 310.741 302.89 303.985 302.161C297.229 301.431 290.74 299.124 285.04 295.424C279.341 291.724 274.591 286.737 271.175 280.863C270.695 280.042 269.973 279.389 269.108 278.994C268.243 278.599 267.277 278.481 266.342 278.657C280.96 261.042 290.576 239.823 294.184 217.22C299.57 217.021 304.68 214.784 308.479 210.962C312.279 207.139 314.485 202.017 314.652 196.63C314.819 191.242 312.934 185.993 309.378 181.943C305.822 177.893 300.861 175.344 295.497 174.812C295.564 174.377 295.564 173.934 295.497 173.499L290.021 137.317C291.543 137.149 293.073 137.065 294.604 137.068C314.094 137.015 329.959 150.385 329.959 166.814ZM124.083 66.6471C127.563 62.7071 153.659 55.6291 201.989 55.6291C250.319 55.6291 276.349 62.7341 279.882 66.6341C279.871 66.9641 279.893 67.2941 279.948 67.6191V121.662H270.347C269.128 121.662 267.959 122.147 267.097 123.009C266.235 123.871 265.751 125.04 265.751 126.259C265.751 127.478 266.235 128.647 267.097 129.509C267.959 130.371 269.128 130.856 270.347 130.856H277.952C270.558 139.734 242.991 149.479 201.989 149.479C160.987 149.479 133.434 139.734 126.04 130.856H236.135C237.355 130.856 238.524 130.371 239.386 129.509C240.248 128.647 240.732 127.478 240.732 126.259C240.732 125.04 240.248 123.871 239.386 123.009C238.524 122.147 237.355 121.662 236.135 121.662H123.978V67.5141C124.046 67.2301 124.081 66.9391 124.083 66.6471ZM149.036 299.105C139.854 299.095 131.051 295.443 124.559 288.95C118.066 282.457 114.414 273.655 114.404 264.473C114.404 263.921 114.404 263.383 114.404 262.831C114.44 262.081 114.291 261.334 113.97 260.656C113.65 259.977 113.167 259.387 112.565 258.938C111.964 258.49 111.261 258.196 110.519 258.082C109.777 257.968 109.018 258.039 108.31 258.287C100.573 260.974 92.3169 261.825 84.1949 260.771C76.0719 259.717 68.3069 256.788 61.5119 252.216C54.7169 247.643 49.0789 241.552 45.0439 234.425C41.0089 227.297 38.6869 219.329 38.2629 211.149C37.8379 202.97 39.3229 194.804 42.5989 187.297C45.8749 179.791 50.8519 173.149 57.1379 167.898C63.4229 162.647 70.8439 158.93 78.8139 157.042C86.7829 155.153 95.0829 155.145 103.057 157.017C103.855 157.203 104.69 157.172 105.472 156.928C106.255 156.683 106.958 156.233 107.509 155.625C109.32 153.64 111.259 151.775 113.314 150.043L111.357 173.762C111.35 173.819 111.35 173.876 111.357 173.933C111.357 173.998 111.357 174.077 111.357 174.143V174.931C105.803 175.092 100.532 177.418 96.6699 181.413C92.8079 185.407 90.6599 190.753 90.6859 196.309C90.7119 201.865 92.9089 207.191 96.8079 211.15C100.707 215.108 105.999 217.385 111.554 217.495C112.132 217.495 112.71 217.495 113.301 217.417C118.961 251.064 136.717 279.72 161.04 297.161C158.492 298.304 154.867 299.092 148.957 299.092L149.036 299.105ZM203.119 314.418C203.337 314.431 203.556 314.431 203.775 314.418C203.989 314.432 204.204 314.432 204.419 314.418C204.854 314.485 205.297 314.485 205.732 314.418C210.77 313.696 215.738 312.553 220.586 311.004V322.022C220.586 323.076 220.485 324.127 220.284 325.161C220.014 325.566 219.806 326.009 219.666 326.475C218.722 329.925 216.672 332.971 213.831 335.144C210.99 337.318 207.514 338.5 203.937 338.509C200.359 338.518 196.878 337.353 194.026 335.194C191.174 333.034 189.108 329.999 188.147 326.553C187.957 325.895 187.62 325.289 187.162 324.78C187.005 323.865 186.922 322.938 186.912 322.009V310.518C192.159 312.301 197.557 313.602 203.04 314.405L203.119 314.418ZM48.4489 382.934C48.6199 382.598 48.7439 382.24 48.8169 381.871C51.5749 368.632 69.5279 356.392 96.6609 347.343V465.923H48.4489V382.934ZM155.012 465.923C163.233 447.812 182.394 435.625 203.696 435.625C224.998 435.625 244.16 447.812 252.381 465.923H155.012ZM385.985 465.923H371.644V461.405L389.295 257.67L403.912 258.983L385.985 465.923ZM420.026 237.09V237.76C419.759 240.793 418.462 243.644 416.35 245.837C414.237 248.031 411.438 249.435 408.417 249.816C408.01 249.816 407.602 249.895 407.195 249.908H406.736H405.646L389.216 248.477C388.561 248.414 387.911 248.304 387.272 248.148L386.524 247.951C383.595 247.064 381.06 245.197 379.345 242.662C377.63 240.127 376.84 237.079 377.107 234.03V233.387C377.393 230.073 378.909 226.987 381.357 224.736C383.805 222.485 387.007 221.233 390.332 221.225C390.726 221.225 391.12 221.225 391.501 221.225L407.852 222.644C409.597 222.792 411.296 223.284 412.851 224.092C414.406 224.899 415.785 226.006 416.911 227.349C418.036 228.691 418.885 230.243 419.408 231.915C419.932 233.587 420.119 235.345 419.961 237.09H420.026ZM460.739 95.5011L455.617 154.6C455.573 155.044 455.494 155.483 455.381 155.914C455.309 156.233 455.269 156.558 455.263 156.886C455.263 158.448 455.171 159.841 455.053 161.115C453.947 175.757 447.48 189.476 436.889 199.647C426.606 209.3 413.683 213.989 400.524 212.846C387.364 211.704 375.452 204.861 366.981 193.593C358.303 181.75 354.291 167.125 355.713 152.512C355.831 151.199 356.002 149.886 356.239 148.297C356.278 147.969 356.278 147.639 356.239 147.312C356.205 146.848 356.205 146.383 356.239 145.919L361.413 86.9381C361.951 80.7391 368.308 76.2081 375.636 76.8521L377.606 77.0231L370.567 158.304C370.515 158.904 370.581 159.509 370.763 160.084C370.945 160.658 371.238 161.191 371.626 161.652C372.014 162.113 372.489 162.493 373.023 162.771C373.558 163.048 374.143 163.217 374.743 163.268H375.15C376.299 163.263 377.404 162.829 378.249 162.052C379.094 161.275 379.619 160.21 379.721 159.066L386.747 77.7451L405.974 79.4131L399.88 150.661C399.778 151.876 400.162 153.082 400.947 154.014C401.732 154.947 402.855 155.531 404.07 155.638H404.464C405.613 155.639 406.721 155.21 407.57 154.434C408.418 153.659 408.945 152.593 409.047 151.448L415.22 80.2141L437.126 82.1181L433.278 126.587C433.172 127.801 433.553 129.007 434.336 129.94C435.119 130.874 436.241 131.458 437.454 131.565H437.861C439.011 131.562 440.117 131.13 440.963 130.352C441.809 129.574 442.333 128.507 442.432 127.362L446.28 82.8931L448.539 83.0901C455.775 83.7601 461.291 89.3151 460.753 95.5011H460.739Z" fill="#00084D"/>
<mask id="mask0_991_128" style="mask-type:luminance" maskUnits="userSpaceOnUse" x="27" y="44" width="445" height="434">
<path d="M472 44.4351H27V477.435H472V44.4351Z" fill="white"/>
<path d="M449.261 73.9631L442.432 73.3721L376.437 67.6461C364.066 66.5951 353.231 74.8561 352.259 86.1111L347.137 145.131C347.091 145.875 347.091 146.621 347.137 147.364C346.901 148.927 346.73 150.345 346.612 151.711C344.982 168.581 349.635 185.458 359.679 199.109C364.698 205.866 371.106 211.468 378.473 215.539C377.61 216.083 376.781 216.68 375.991 217.325C373.732 219.225 371.872 221.555 370.52 224.179C369.167 226.803 368.348 229.669 368.111 232.612V233.255C367.731 237.737 368.701 242.229 370.896 246.155C373.092 250.08 376.412 253.258 380.43 255.28L369.831 375.869C363.803 360.109 342.738 346.437 311.927 336.929C311.532 336.739 311.112 336.606 310.679 336.535C288.103 329.705 260.419 325.083 229.648 323.401C229.648 322.955 229.713 322.508 229.713 322.088V308.311C229.713 307.852 229.713 307.392 229.713 306.932C242.174 301.166 253.376 292.999 262.678 282.899C262.626 283.789 262.836 284.674 263.282 285.447C267.387 292.522 273.089 298.542 279.932 303.025C286.776 307.508 294.571 310.331 302.698 311.268C310.825 312.206 319.059 311.233 326.743 308.426C334.427 305.619 341.35 301.056 346.959 295.101C352.569 289.146 356.71 281.964 359.052 274.125C361.395 266.287 361.875 258.01 360.453 249.954C359.032 241.897 355.748 234.284 350.864 227.721C345.981 221.158 339.632 215.826 332.323 212.15C333.793 208.553 334.406 204.664 334.115 200.789C333.823 196.914 332.634 193.16 330.642 189.824C336.11 183.403 339.142 175.261 339.205 166.827C339.205 145.328 319.216 127.835 294.644 127.835C292.766 127.835 290.889 127.94 289.023 128.15C289.102 127.527 289.141 126.9 289.141 126.272V66.2531C289.141 59.2401 280.526 54.5251 261.207 50.9661C245.342 48.0381 224.316 46.4351 201.989 46.4351C179.663 46.4351 158.65 48.0381 142.785 50.9661C123.453 54.5251 114.837 59.2401 114.837 66.2531C114.831 66.3581 114.831 66.4641 114.837 66.5691C114.831 66.6561 114.831 66.7441 114.837 66.8311V126.259C114.843 127.401 114.984 128.539 115.257 129.647C115.041 130.125 114.903 130.636 114.85 131.158L114.299 137.803C110.037 140.62 106.076 143.868 102.479 147.495C94.0009 145.894 85.2829 146.08 76.8819 148.042C68.4799 150.004 60.5809 153.699 53.6899 158.889C46.7979 164.08 41.0659 170.652 36.8609 178.185C32.6559 185.718 30.0699 194.046 29.2679 202.636C28.4669 211.226 29.4669 219.889 32.2059 228.07C34.9449 236.251 39.3619 243.77 45.1749 250.146C50.9869 256.522 58.0659 261.614 65.9589 265.096C73.8529 268.579 82.3859 270.375 91.0139 270.37C95.8429 270.371 100.657 269.807 105.355 268.689C106.42 279.525 111.475 289.578 119.538 296.895C127.601 304.213 138.095 308.272 148.983 308.285C160.186 308.285 165.702 305.777 169.524 302.704C172.15 304.24 174.935 305.659 177.732 306.932C177.732 307.397 177.732 307.856 177.732 308.311V322.022C177.732 322.535 177.732 323.034 177.811 323.533C164.152 324.347 150.783 325.765 138.044 327.801C137.706 327.863 137.376 327.96 137.059 328.09C84.2369 336.85 46.9389 355.473 40.3719 377.996C39.6889 378.819 39.3169 379.856 39.3209 380.925V470.506C39.3209 471.726 39.8059 472.895 40.6679 473.757C41.5299 474.619 42.6989 475.103 43.9179 475.103H390.201C391.351 475.104 392.459 474.672 393.306 473.893C394.153 473.115 394.676 472.047 394.771 470.9L413.158 258.143C417.466 256.851 421.287 254.295 424.126 250.806C426.964 247.317 428.688 243.055 429.075 238.574L429.141 237.917C429.458 234.459 428.96 230.974 427.687 227.742C426.415 224.51 424.403 221.622 421.813 219.308C429.794 216.57 437.095 212.15 443.22 206.345C455.457 194.623 462.939 178.799 464.233 161.903C464.351 160.589 464.43 159.118 464.469 157.529C464.632 156.802 464.746 156.065 464.811 155.323L469.919 96.3021C470.891 85.0601 461.606 75.0401 449.261 73.9631ZM362.083 381.871C362.162 382.239 362.285 382.596 362.451 382.934V460.998L362.017 465.923H314.514V347.409C341.516 356.418 359.325 368.619 362.083 381.871ZM262.27 465.923C253.616 442.506 230.028 426.431 203.67 426.431C177.312 426.431 153.764 442.506 145.07 465.923H105.854V344.507C115.156 341.867 124.584 339.697 134.104 338.006V368.672C134.111 375.479 136.818 382.006 141.631 386.819C146.445 391.633 152.972 394.34 159.779 394.347H247.614C254.421 394.34 260.948 391.633 265.761 386.819C270.575 382.006 273.282 375.479 273.289 368.672V337.375C284.091 339.169 294.785 341.563 305.321 344.546V465.923H262.27ZM179.663 332.674C181.715 337.151 185.004 340.949 189.144 343.618C193.284 346.287 198.101 347.717 203.027 347.737H204.603C209.557 347.725 214.403 346.283 218.558 343.585C222.714 340.888 226.003 337.049 228.032 332.529C240.377 333.186 252.473 334.355 264.096 336.036V368.645C264.092 373.016 262.355 377.206 259.265 380.296C256.174 383.386 251.984 385.124 247.614 385.128H159.779C155.409 385.124 151.218 383.386 148.128 380.296C145.038 377.206 143.3 373.016 143.297 368.645V336.469C154.828 334.709 167.028 333.422 179.689 332.674H179.663ZM204.314 305.094C197.537 304.001 190.921 302.078 184.614 299.368C183.956 299.086 183.239 298.969 182.526 299.026C150.783 285.066 126.907 251.747 121.601 211.375C121.443 210.28 120.895 209.278 120.058 208.555C119.22 207.831 118.15 207.433 117.044 207.435C116.52 207.431 115.999 207.52 115.507 207.698C114.214 208.164 112.85 208.404 111.475 208.407C109.854 208.461 108.239 208.187 106.725 207.604C105.212 207.021 103.831 206.139 102.666 205.011C101.5 203.883 100.573 202.532 99.9399 201.039C99.3069 199.545 98.9809 197.94 98.9809 196.318C98.9809 194.696 99.3069 193.091 99.9399 191.597C100.573 190.104 101.5 188.753 102.666 187.625C103.831 186.498 105.212 185.616 106.725 185.032C108.239 184.449 109.854 184.176 111.475 184.229C112.549 184.234 113.617 184.379 114.653 184.662C115.335 184.85 116.051 184.878 116.746 184.744C117.44 184.61 118.095 184.318 118.658 183.889C119.221 183.461 119.677 182.909 119.992 182.275C120.306 181.641 120.47 180.944 120.471 180.236V177.308L120.695 177.465C125.672 180.749 133.998 186.265 148.353 184.912C155.09 184.281 163.758 179.908 169.117 172.724C182.329 182.167 204.813 183.494 223.619 183.494C249.321 183.494 271.687 173.578 281.944 158.737C283.934 165.708 285.331 172.834 286.12 180.039C286.188 180.655 286.379 181.251 286.682 181.79C286.985 182.33 287.395 182.803 287.885 183.181C288.376 183.559 288.938 183.834 289.537 183.989C290.137 184.144 290.761 184.177 291.374 184.084C291.998 183.977 292.631 183.92 293.265 183.914C294.886 183.86 296.501 184.133 298.015 184.717C299.528 185.3 300.909 186.182 302.074 187.31C303.24 188.438 304.167 189.789 304.8 191.282C305.433 192.775 305.759 194.381 305.759 196.003C305.759 197.625 305.433 199.23 304.8 200.724C304.167 202.217 303.24 203.568 302.074 204.696C300.909 205.823 299.528 206.705 298.015 207.289C296.501 207.872 294.886 208.145 293.265 208.092C292.543 208.089 291.822 208.023 291.111 207.895C290.499 207.778 289.869 207.788 289.261 207.926C288.653 208.064 288.08 208.326 287.578 208.696C287.076 209.061 286.653 209.524 286.335 210.056C286.017 210.589 285.81 211.181 285.726 211.796C279.212 260.296 245.841 298.501 204.34 305.094H204.314ZM281.182 140.39L281.406 141.874C280.614 142.093 279.895 142.519 279.323 143.107C278.75 143.696 278.345 144.426 278.149 145.223C274.209 161.771 250.753 174.248 223.619 174.248C205.824 174.248 181.028 173.026 171.336 162.428C170.817 161.861 170.164 161.434 169.437 161.185C168.71 160.937 167.932 160.875 167.175 161.006C166.418 161.137 165.706 161.456 165.104 161.934C164.503 162.412 164.031 163.033 163.732 163.741C160.948 170.229 153.094 175.154 147.499 175.679C136.362 176.717 130.242 172.672 125.764 169.704C124.305 168.647 122.727 167.765 121.062 167.077L123.229 140.784C138.201 152.473 170.771 158.659 201.937 158.659C233.469 158.672 266.46 152.342 281.182 140.39ZM329.959 166.814C329.905 170.436 329.127 174.011 327.673 177.328C326.218 180.646 324.115 183.639 321.488 186.133C320.67 186.936 320.182 188.016 320.119 189.16C320.056 190.304 320.422 191.431 321.147 192.319C323.429 195.013 324.757 198.387 324.923 201.914C325.09 205.441 324.085 208.925 322.066 211.822C321.666 212.408 321.407 213.078 321.309 213.781C321.211 214.484 321.277 215.2 321.503 215.873C321.728 216.546 322.106 217.158 322.607 217.66C323.108 218.163 323.718 218.542 324.39 218.769C325.312 219.083 326.215 219.447 327.096 219.859C333.244 222.753 338.625 227.052 342.805 232.409C346.985 237.766 349.847 244.031 351.16 250.698C352.473 257.365 352.2 264.247 350.363 270.789C348.526 277.33 345.177 283.349 340.585 288.357C335.994 293.366 330.289 297.225 323.931 299.623C317.573 302.021 310.741 302.89 303.985 302.161C297.229 301.431 290.74 299.124 285.04 295.424C279.341 291.724 274.591 286.737 271.175 280.863C270.695 280.042 269.973 279.389 269.108 278.994C268.243 278.599 267.277 278.481 266.342 278.657C280.96 261.042 290.576 239.823 294.184 217.22C299.57 217.021 304.68 214.784 308.479 210.962C312.279 207.139 314.485 202.017 314.652 196.63C314.819 191.242 312.934 185.993 309.378 181.943C305.822 177.893 300.861 175.344 295.497 174.812C295.564 174.377 295.564 173.934 295.497 173.499L290.021 137.317C291.543 137.149 293.073 137.065 294.604 137.068C314.094 137.015 329.959 150.385 329.959 166.814ZM124.083 66.6471C127.563 62.7071 153.659 55.6291 201.989 55.6291C250.319 55.6291 276.349 62.7341 279.882 66.6341C279.871 66.9641 279.893 67.2941 279.948 67.6191V121.662H270.347C269.128 121.662 267.959 122.147 267.097 123.009C266.235 123.871 265.751 125.04 265.751 126.259C265.751 127.478 266.235 128.647 267.097 129.509C267.959 130.371 269.128 130.856 270.347 130.856H277.952C270.558 139.734 242.991 149.479 201.989 149.479C160.987 149.479 133.434 139.734 126.04 130.856H236.135C237.355 130.856 238.524 130.371 239.386 129.509C240.248 128.647 240.732 127.478 240.732 126.259C240.732 125.04 240.248 123.871 239.386 123.009C238.524 122.147 237.355 121.662 236.135 121.662H123.978V67.5141C124.046 67.2301 124.081 66.9391 124.083 66.6471ZM149.036 299.105C139.854 299.095 131.051 295.443 124.559 288.95C118.066 282.457 114.414 273.655 114.404 264.473C114.404 263.921 114.404 263.383 114.404 262.831C114.44 262.081 114.291 261.334 113.97 260.656C113.65 259.977 113.167 259.387 112.565 258.938C111.964 258.49 111.261 258.196 110.519 258.082C109.777 257.968 109.018 258.039 108.31 258.287C100.573 260.974 92.3169 261.825 84.1949 260.771C76.0719 259.717 68.3069 256.788 61.5119 252.216C54.7169 247.643 49.0789 241.552 45.0439 234.425C41.0089 227.297 38.6869 219.329 38.2629 211.149C37.8379 202.97 39.3229 194.804 42.5989 187.297C45.8749 179.791 50.8519 173.149 57.1379 167.898C63.4229 162.647 70.8439 158.93 78.8139 157.042C86.7829 155.153 95.0829 155.145 103.057 157.017C103.855 157.203 104.69 157.172 105.472 156.928C106.255 156.683 106.958 156.233 107.509 155.625C109.32 153.64 111.259 151.775 113.314 150.043L111.357 173.762C111.35 173.819 111.35 173.876 111.357 173.933C111.357 173.998 111.357 174.077 111.357 174.143V174.931C105.803 175.092 100.532 177.418 96.6699 181.413C92.8079 185.407 90.6599 190.753 90.6859 196.309C90.7119 201.865 92.9089 207.191 96.8079 211.15C100.707 215.108 105.999 217.385 111.554 217.495C112.132 217.495 112.71 217.495 113.301 217.417C118.961 251.064 136.717 279.72 161.04 297.161C158.492 298.304 154.867 299.092 148.957 299.092L149.036 299.105ZM203.119 314.418C203.337 314.431 203.556 314.431 203.775 314.418C203.989 314.432 204.204 314.432 204.419 314.418C204.854 314.485 205.297 314.485 205.732 314.418C210.77 313.696 215.738 312.553 220.586 311.004V322.022C220.586 323.076 220.485 324.127 220.284 325.161C220.014 325.566 219.806 326.009 219.666 326.475C218.722 329.925 216.672 332.971 213.831 335.144C210.99 337.318 207.514 338.5 203.937 338.509C200.359 338.518 196.878 337.353 194.026 335.194C191.174 333.034 189.108 329.999 188.147 326.553C187.957 325.895 187.62 325.289 187.162 324.78C187.005 323.865 186.922 322.938 186.912 322.009V310.518C192.159 312.301 197.557 313.602 203.04 314.405L203.119 314.418ZM48.4489 382.934C48.6199 382.598 48.7439 382.24 48.8169 381.871C51.5749 368.632 69.5279 356.392 96.6609 347.343V465.923H48.4489V382.934ZM155.012 465.923C163.233 447.812 182.394 435.625 203.696 435.625C224.998 435.625 244.16 447.812 252.381 465.923H155.012ZM385.985 465.923H371.644V461.405L389.295 257.67L403.912 258.983L385.985 465.923ZM420.026 237.09V237.76C419.759 240.793 418.462 243.644 416.35 245.837C414.237 248.031 411.438 249.435 408.417 249.816C408.01 249.816 407.602 249.895 407.195 249.908H406.736H405.646L389.216 248.477C388.561 248.414 387.911 248.304 387.272 248.148L386.524 247.951C383.595 247.064 381.06 245.197 379.345 242.662C377.63 240.127 376.84 237.079 377.107 234.03V233.387C377.393 230.073 378.909 226.987 381.357 224.736C383.805 222.485 387.007 221.233 390.332 221.225C390.726 221.225 391.12 221.225 391.501 221.225L407.852 222.644C409.597 222.792 411.296 223.284 412.851 224.092C414.406 224.899 415.785 226.006 416.911 227.349C418.036 228.691 418.885 230.243 419.408 231.915C419.932 233.587 420.119 235.345 419.961 237.09H420.026ZM460.739 95.5011L455.617 154.6C455.573 155.044 455.494 155.483 455.381 155.914C455.309 156.233 455.269 156.558 455.263 156.886C455.263 158.448 455.171 159.841 455.053 161.115C453.947 175.757 447.48 189.476 436.889 199.647C426.606 209.3 413.683 213.989 400.524 212.846C387.364 211.704 375.452 204.861 366.981 193.593C358.303 181.75 354.291 167.125 355.713 152.512C355.831 151.199 356.002 149.886 356.239 148.297C356.278 147.969 356.278 147.639 356.239 147.312C356.205 146.848 356.205 146.383 356.239 145.919L361.413 86.9381C361.951 80.7391 368.308 76.2081 375.636 76.8521L377.606 77.0231L370.567 158.304C370.515 158.904 370.581 159.509 370.763 160.084C370.945 160.658 371.238 161.191 371.626 161.652C372.014 162.113 372.489 162.493 373.023 162.771C373.558 163.048 374.143 163.217 374.743 163.268H375.15C376.299 163.263 377.404 162.829 378.249 162.052C379.094 161.275 379.619 160.21 379.721 159.066L386.747 77.7451L405.974 79.4131L399.88 150.661C399.778 151.876 400.162 153.082 400.947 154.014C401.732 154.947 402.855 155.531 404.07 155.638H404.464C405.613 155.639 406.721 155.21 407.57 154.434C408.418 153.659 408.945 152.593 409.047 151.448L415.22 80.2141L437.126 82.1181L433.278 126.587C433.172 127.801 433.553 129.007 434.336 129.94C435.119 130.874 436.241 131.458 437.454 131.565H437.861C439.011 131.562 440.117 131.13 440.963 130.352C441.809 129.574 442.333 128.507 442.432 127.362L446.28 82.8931L448.539 83.0901C455.775 83.7601 461.291 89.3151 460.753 95.5011H460.739Z" fill="black"/>
</mask>
<g mask="url(#mask0_991_128)">
<path d="M449.261 73.9631L442.432 73.3721L376.437 67.6461C364.066 66.5951 353.231 74.8561 352.259 86.1111L347.137 145.131C347.091 145.875 347.091 146.621 347.137 147.364C346.901 148.927 346.73 150.345 346.612 151.711C344.982 168.581 349.635 185.458 359.679 199.109C364.698 205.866 371.106 211.468 378.473 215.539C377.61 216.083 376.781 216.68 375.991 217.325C373.732 219.225 371.872 221.555 370.52 224.179C369.167 226.803 368.348 229.669 368.111 232.612V233.255C367.731 237.737 368.701 242.229 370.896 246.155C373.092 250.08 376.412 253.258 380.43 255.28L369.831 375.869C363.803 360.109 342.738 346.437 311.927 336.929C311.532 336.739 311.112 336.606 310.679 336.535C288.103 329.705 260.419 325.083 229.648 323.401C229.648 322.955 229.713 322.508 229.713 322.088V308.311C229.713 307.852 229.713 307.392 229.713 306.932C242.174 301.166 253.376 292.999 262.678 282.899C262.626 283.789 262.836 284.674 263.282 285.447C267.387 292.522 273.089 298.542 279.932 303.025C286.776 307.508 294.571 310.331 302.698 311.268C310.825 312.206 319.059 311.233 326.743 308.426C334.427 305.619 341.35 301.056 346.959 295.101C352.569 289.146 356.71 281.964 359.052 274.125C361.395 266.287 361.875 258.01 360.453 249.954C359.032 241.897 355.748 234.284 350.864 227.721C345.981 221.158 339.632 215.826 332.323 212.15C333.793 208.553 334.406 204.664 334.115 200.789C333.823 196.914 332.634 193.16 330.642 189.824C336.11 183.403 339.142 175.261 339.205 166.827C339.205 145.328 319.216 127.835 294.644 127.835C292.766 127.835 290.889 127.94 289.023 128.15C289.102 127.527 289.141 126.9 289.141 126.272V66.2531C289.141 59.2401 280.526 54.5251 261.207 50.9661C245.342 48.0381 224.316 46.4351 201.989 46.4351C179.663 46.4351 158.65 48.0381 142.785 50.9661C123.453 54.5251 114.837 59.2401 114.837 66.2531C114.831 66.3581 114.831 66.4641 114.837 66.5691C114.831 66.6561 114.831 66.7441 114.837 66.8311V126.259C114.843 127.401 114.984 128.539 115.257 129.647C115.041 130.125 114.903 130.636 114.85 131.158L114.299 137.803C110.037 140.62 106.076 143.868 102.479 147.495C94.0009 145.894 85.2829 146.08 76.8819 148.042C68.4799 150.004 60.5809 153.699 53.6899 158.889C46.7979 164.08 41.0659 170.652 36.8609 178.185C32.6559 185.718 30.0699 194.046 29.2679 202.636C28.4669 211.226 29.4669 219.889 32.2059 228.07C34.9449 236.251 39.3619 243.77 45.1749 250.146C50.9869 256.522 58.0659 261.614 65.9589 265.096C73.8529 268.579 82.3859 270.375 91.0139 270.37C95.8429 270.371 100.657 269.807 105.355 268.689C106.42 279.525 111.475 289.578 119.538 296.895C127.601 304.213 138.095 308.272 148.983 308.285C160.186 308.285 165.702 305.777 169.524 302.704C172.15 304.24 174.935 305.659 177.732 306.932C177.732 307.397 177.732 307.856 177.732 308.311V322.022C177.732 322.535 177.732 323.034 177.811 323.533C164.152 324.347 150.783 325.765 138.044 327.801C137.706 327.863 137.376 327.96 137.059 328.09C84.2369 336.85 46.9389 355.473 40.3719 377.996C39.6889 378.819 39.3169 379.856 39.3209 380.925V470.506C39.3209 471.726 39.8059 472.895 40.6679 473.757C41.5299 474.619 42.6989 475.103 43.9179 475.103H390.201C391.351 475.104 392.459 474.672 393.306 473.893C394.153 473.115 394.676 472.047 394.771 470.9L413.158 258.143C417.466 256.851 421.287 254.295 424.126 250.806C426.964 247.317 428.688 243.055 429.075 238.574L429.141 237.917C429.458 234.459 428.96 230.974 427.687 227.742C426.415 224.51 424.403 221.622 421.813 219.308C429.794 216.57 437.095 212.15 443.22 206.345C455.457 194.623 462.939 178.799 464.233 161.903C464.351 160.589 464.43 159.118 464.469 157.529C464.632 156.802 464.746 156.065 464.811 155.323L469.919 96.3021C470.891 85.0601 461.606 75.0401 449.261 73.9631ZM362.083 381.871C362.162 382.239 362.285 382.596 362.451 382.934V460.998L362.017 465.923H314.514V347.409C341.516 356.418 359.325 368.619 362.083 381.871ZM262.27 465.923C253.616 442.506 230.028 426.431 203.67 426.431C177.312 426.431 153.764 442.506 145.07 465.923H105.854V344.507C115.156 341.867 124.584 339.697 134.104 338.006V368.672C134.111 375.479 136.818 382.006 141.631 386.819C146.445 391.633 152.972 394.34 159.779 394.347H247.614C254.421 394.34 260.948 391.633 265.761 386.819C270.575 382.006 273.282 375.479 273.289 368.672V337.375C284.091 339.169 294.785 341.563 305.321 344.546V465.923H262.27ZM179.663 332.674C181.715 337.151 185.004 340.949 189.144 343.618C193.284 346.287 198.101 347.717 203.027 347.737H204.603C209.557 347.725 214.403 346.283 218.558 343.585C222.714 340.888 226.003 337.049 228.032 332.529C240.377 333.186 252.473 334.355 264.096 336.036V368.645C264.092 373.016 262.355 377.206 259.265 380.296C256.174 383.386 251.984 385.124 247.614 385.128H159.779C155.409 385.124 151.218 383.386 148.128 380.296C145.038 377.206 143.3 373.016 143.297 368.645V336.469C154.828 334.709 167.028 333.422 179.689 332.674H179.663ZM204.314 305.094C197.537 304.001 190.921 302.078 184.614 299.368C183.956 299.086 183.239 298.969 182.526 299.026C150.783 285.066 126.907 251.747 121.601 211.375C121.443 210.28 120.895 209.278 120.058 208.555C119.22 207.831 118.15 207.433 117.044 207.435C116.52 207.431 115.999 207.52 115.507 207.698C114.214 208.164 112.85 208.404 111.475 208.407C109.854 208.461 108.239 208.187 106.725 207.604C105.212 207.021 103.831 206.139 102.666 205.011C101.5 203.883 100.573 202.532 99.9399 201.039C99.3069 199.545 98.9809 197.94 98.9809 196.318C98.9809 194.696 99.3069 193.091 99.9399 191.597C100.573 190.104 101.5 188.753 102.666 187.625C103.831 186.498 105.212 185.616 106.725 185.032C108.239 184.449 109.854 184.176 111.475 184.229C112.549 184.234 113.617 184.379 114.653 184.662C115.335 184.85 116.051 184.878 116.746 184.744C117.44 184.61 118.095 184.318 118.658 183.889C119.221 183.461 119.677 182.909 119.992 182.275C120.306 181.641 120.47 180.944 120.471 180.236V177.308L120.695 177.465C125.672 180.749 133.998 186.265 148.353 184.912C155.09 184.281 163.758 179.908 169.117 172.724C182.329 182.167 204.813 183.494 223.619 183.494C249.321 183.494 271.687 173.578 281.944 158.737C283.934 165.708 285.331 172.834 286.12 180.039C286.188 180.655 286.379 181.251 286.682 181.79C286.985 182.33 287.395 182.803 287.885 183.181C288.376 183.559 288.938 183.834 289.537 183.989C290.137 184.144 290.761 184.177 291.374 184.084C291.998 183.977 292.631 183.92 293.265 183.914C294.886 183.86 296.501 184.133 298.015 184.717C299.528 185.3 300.909 186.182 302.074 187.31C303.24 188.438 304.167 189.789 304.8 191.282C305.433 192.775 305.759 194.381 305.759 196.003C305.759 197.625 305.433 199.23 304.8 200.724C304.167 202.217 303.24 203.568 302.074 204.696C300.909 205.823 299.528 206.705 298.015 207.289C296.501 207.872 294.886 208.145 293.265 208.092C292.543 208.089 291.822 208.023 291.111 207.895C290.499 207.778 289.869 207.788 289.261 207.926C288.653 208.064 288.08 208.326 287.578 208.696C287.076 209.061 286.653 209.524 286.335 210.056C286.017 210.589 285.81 211.181 285.726 211.796C279.212 260.296 245.841 298.501 204.34 305.094H204.314ZM281.182 140.39L281.406 141.874C280.614 142.093 279.895 142.519 279.323 143.107C278.75 143.696 278.345 144.426 278.149 145.223C274.209 161.771 250.753 174.248 223.619 174.248C205.824 174.248 181.028 173.026 171.336 162.428C170.817 161.861 170.164 161.434 169.437 161.185C168.71 160.937 167.932 160.875 167.175 161.006C166.418 161.137 165.706 161.456 165.104 161.934C164.503 162.412 164.031 163.033 163.732 163.741C160.948 170.229 153.094 175.154 147.499 175.679C136.362 176.717 130.242 172.672 125.764 169.704C124.305 168.647 122.727 167.765 121.062 167.077L123.229 140.784C138.201 152.473 170.771 158.659 201.937 158.659C233.469 158.672 266.46 152.342 281.182 140.39ZM329.959 166.814C329.905 170.436 329.127 174.011 327.673 177.328C326.218 180.646 324.115 183.639 321.488 186.133C320.67 186.936 320.182 188.016 320.119 189.16C320.056 190.304 320.422 191.431 321.147 192.319C323.429 195.013 324.757 198.387 324.923 201.914C325.09 205.441 324.085 208.925 322.066 211.822C321.666 212.408 321.407 213.078 321.309 213.781C321.211 214.484 321.277 215.2 321.503 215.873C321.728 216.546 322.106 217.158 322.607 217.66C323.108 218.163 323.718 218.542 324.39 218.769C325.312 219.083 326.215 219.447 327.096 219.859C333.244 222.753 338.625 227.052 342.805 232.409C346.985 237.766 349.847 244.031 351.16 250.698C352.473 257.365 352.2 264.247 350.363 270.789C348.526 277.33 345.177 283.349 340.585 288.357C335.994 293.366 330.289 297.225 323.931 299.623C317.573 302.021 310.741 302.89 303.985 302.161C297.229 301.431 290.74 299.124 285.04 295.424C279.341 291.724 274.591 286.737 271.175 280.863C270.695 280.042 269.973 279.389 269.108 278.994C268.243 278.599 267.277 278.481 266.342 278.657C280.96 261.042 290.576 239.823 294.184 217.22C299.57 217.021 304.68 214.784 308.479 210.962C312.279 207.139 314.485 202.017 314.652 196.63C314.819 191.242 312.934 185.993 309.378 181.943C305.822 177.893 300.861 175.344 295.497 174.812C295.564 174.377 295.564 173.934 295.497 173.499L290.021 137.317C291.543 137.149 293.073 137.065 294.604 137.068C314.094 137.015 329.959 150.385 329.959 166.814ZM124.083 66.6471C127.563 62.7071 153.659 55.6291 201.989 55.6291C250.319 55.6291 276.349 62.7341 279.882 66.6341C279.871 66.9641 279.893 67.2941 279.948 67.6191V121.662H270.347C269.128 121.662 267.959 122.147 267.097 123.009C266.235 123.871 265.751 125.04 265.751 126.259C265.751 127.478 266.235 128.647 267.097 129.509C267.959 130.371 269.128 130.856 270.347 130.856H277.952C270.558 139.734 242.991 149.479 201.989 149.479C160.987 149.479 133.434 139.734 126.04 130.856H236.135C237.355 130.856 238.524 130.371 239.386 129.509C240.248 128.647 240.732 127.478 240.732 126.259C240.732 125.04 240.248 123.871 239.386 123.009C238.524 122.147 237.355 121.662 236.135 121.662H123.978V67.5141C124.046 67.2301 124.081 66.9391 124.083 66.6471ZM149.036 299.105C139.854 299.095 131.051 295.443 124.559 288.95C118.066 282.457 114.414 273.655 114.404 264.473C114.404 263.921 114.404 263.383 114.404 262.831C114.44 262.081 114.291 261.334 113.97 260.656C113.65 259.977 113.167 259.387 112.565 258.938C111.964 258.49 111.261 258.196 110.519 258.082C109.777 257.968 109.018 258.039 108.31 258.287C100.573 260.974 92.3169 261.825 84.1949 260.771C76.0719 259.717 68.3069 256.788 61.5119 252.216C54.7169 247.643 49.0789 241.552 45.0439 234.425C41.0089 227.297 38.6869 219.329 38.2629 211.149C37.8379 202.97 39.3229 194.804 42.5989 187.297C45.8749 179.791 50.8519 173.149 57.1379 167.898C63.4229 162.647 70.8439 158.93 78.8139 157.042C86.7829 155.153 95.0829 155.145 103.057 157.017C103.855 157.203 104.69 157.172 105.472 156.928C106.255 156.683 106.958 156.233 107.509 155.625C109.32 153.64 111.259 151.775 113.314 150.043L111.357 173.762C111.35 173.819 111.35 173.876 111.357 173.933C111.357 173.998 111.357 174.077 111.357 174.143V174.931C105.803 175.092 100.532 177.418 96.6699 181.413C92.8079 185.407 90.6599 190.753 90.6859 196.309C90.7119 201.865 92.9089 207.191 96.8079 211.15C100.707 215.108 105.999 217.385 111.554 217.495C112.132 217.495 112.71 217.495 113.301 217.417C118.961 251.064 136.717 279.72 161.04 297.161C158.492 298.304 154.867 299.092 148.957 299.092L149.036 299.105ZM203.119 314.418C203.337 314.431 203.556 314.431 203.775 314.418C203.989 314.432 204.204 314.432 204.419 314.418C204.854 314.485 205.297 314.485 205.732 314.418C210.77 313.696 215.738 312.553 220.586 311.004V322.022C220.586 323.076 220.485 324.127 220.284 325.161C220.014 325.566 219.806 326.009 219.666 326.475C218.722 329.925 216.672 332.971 213.831 335.144C210.99 337.318 207.514 338.5 203.937 338.509C200.359 338.518 196.878 337.353 194.026 335.194C191.174 333.034 189.108 329.999 188.147 326.553C187.957 325.895 187.62 325.289 187.162 324.78C187.005 323.865 186.922 322.938 186.912 322.009V310.518C192.159 312.301 197.557 313.602 203.04 314.405L203.119 314.418ZM48.4489 382.934C48.6199 382.598 48.7439 382.24 48.8169 381.871C51.5749 368.632 69.5279 356.392 96.6609 347.343V465.923H48.4489V382.934ZM155.012 465.923C163.233 447.812 182.394 435.625 203.696 435.625C224.998 435.625 244.16 447.812 252.381 465.923H155.012ZM385.985 465.923H371.644V461.405L389.295 257.67L403.912 258.983L385.985 465.923ZM420.026 237.09V237.76C419.759 240.793 418.462 243.644 416.35 245.837C414.237 248.031 411.438 249.435 408.417 249.816C408.01 249.816 407.602 249.895 407.195 249.908H406.736H405.646L389.216 248.477C388.561 248.414 387.911 248.304 387.272 248.148L386.524 247.951C383.595 247.064 381.06 245.197 379.345 242.662C377.63 240.127 376.84 237.079 377.107 234.03V233.387C377.393 230.073 378.909 226.987 381.357 224.736C383.805 222.485 387.007 221.233 390.332 221.225C390.726 221.225 391.12 221.225 391.501 221.225L407.852 222.644C409.597 222.792 411.296 223.284 412.851 224.092C414.406 224.899 415.785 226.006 416.911 227.349C418.036 228.691 418.885 230.243 419.408 231.915C419.932 233.587 420.119 235.345 419.961 237.09H420.026ZM460.739 95.5011L455.617 154.6C455.573 155.044 455.494 155.483 455.381 155.914C455.309 156.233 455.269 156.558 455.263 156.886C455.263 158.448 455.171 159.841 455.053 161.115C453.947 175.757 447.48 189.476 436.889 199.647C426.606 209.3 413.683 213.989 400.524 212.846C387.364 211.704 375.452 204.861 366.981 193.593C358.303 181.75 354.291 167.125 355.713 152.512C355.831 151.199 356.002 149.886 356.239 148.297C356.278 147.969 356.278 147.639 356.239 147.312C356.205 146.848 356.205 146.383 356.239 145.919L361.413 86.9381C361.951 80.7391 368.308 76.2081 375.636 76.8521L377.606 77.0231L370.567 158.304C370.515 158.904 370.581 159.509 370.763 160.084C370.945 160.658 371.238 161.191 371.626 161.652C372.014 162.113 372.489 162.493 373.023 162.771C373.558 163.048 374.143 163.217 374.743 163.268H375.15C376.299 163.263 377.404 162.829 378.249 162.052C379.094 161.275 379.619 160.21 379.721 159.066L386.747 77.7451L405.974 79.4131L399.88 150.661C399.778 151.876 400.162 153.082 400.947 154.014C401.732 154.947 402.855 155.531 404.07 155.638H404.464C405.613 155.639 406.721 155.21 407.57 154.434C408.418 153.659 408.945 152.593 409.047 151.448L415.22 80.2141L437.126 82.1181L433.278 126.587C433.172 127.801 433.553 129.007 434.336 129.94C435.119 130.874 436.241 131.458 437.454 131.565H437.861C439.011 131.562 440.117 131.13 440.963 130.352C441.809 129.574 442.333 128.507 442.432 127.362L446.28 82.8931L448.539 83.0901C455.775 83.7601 461.291 89.3151 460.753 95.5011H460.739Z" stroke="#00084D" stroke-width="3"/>
</g>
<path d="M434.668 168.733C436.007 168.734 437.297 168.232 438.282 167.326C439.267 166.42 439.875 165.178 439.986 163.844C439.987 163.844 439.987 163.843 439.987 163.843L441.667 144.53C441.667 144.529 441.667 144.529 441.667 144.528C441.732 143.819 441.654 143.105 441.438 142.427C441.222 141.748 440.872 141.12 440.409 140.579C439.946 140.037 439.379 139.594 438.742 139.275C438.108 138.958 437.417 138.77 436.709 138.723C435.3 138.603 433.9 139.046 432.817 139.955C431.731 140.866 431.052 142.17 430.927 143.582V143.586L429.338 162.954L430.085 163.019L429.338 162.958V162.956C429.278 163.654 429.355 164.357 429.566 165.025C429.778 165.693 430.119 166.313 430.57 166.85C431.022 167.386 431.574 167.829 432.197 168.152C432.819 168.474 433.499 168.671 434.198 168.731L434.23 168.733H434.262H434.668Z" fill="#00084D"/>
<path d="M434.668 168.733C436.007 168.734 437.297 168.232 438.282 167.326C439.267 166.42 439.875 165.178 439.986 163.844C439.987 163.844 439.987 163.843 439.987 163.843L441.667 144.53C441.667 144.529 441.667 144.529 441.667 144.528C441.732 143.819 441.654 143.105 441.438 142.427C441.222 141.748 440.872 141.12 440.409 140.579C439.946 140.037 439.379 139.594 438.742 139.275C438.108 138.958 437.417 138.77 436.709 138.723C435.3 138.603 433.9 139.046 432.817 139.955C431.731 140.866 431.052 142.17 430.927 143.582V143.586L429.338 162.954L430.085 163.019L429.338 162.958V162.956C429.278 163.654 429.355 164.357 429.566 165.025C429.778 165.693 430.119 166.313 430.57 166.85C431.022 167.386 431.574 167.829 432.197 168.152C432.819 168.474 433.499 168.671 434.198 168.731L434.23 168.733H434.262H434.668ZM434.668 168.733L434.669 167.983" stroke="#00084D" stroke-width="1.5"/>
<path d="M251.041 131.606H255.848C257.266 131.606 258.626 131.042 259.629 130.04C260.631 129.037 261.195 127.677 261.195 126.259C261.195 124.841 260.631 123.481 259.629 122.478C258.626 121.476 257.266 120.912 255.848 120.912H251.041C249.623 120.912 248.263 121.476 247.261 122.478C246.258 123.481 245.695 124.841 245.695 126.259C245.695 127.677 246.258 129.037 247.261 130.04C248.263 131.042 249.623 131.606 251.041 131.606Z" fill="#00084D" stroke="#00084D" stroke-width="1.5"/>
</svg>
