<svg width="500" height="500" viewBox="0 0 500 500" fill="none" xmlns="http://www.w3.org/2000/svg">
<path d="M47.6367 97.3529C47.6467 94.6539 49.8407 92.4739 52.5377 92.4849C55.2187 92.4949 57.3897 94.6689 57.3997 97.3529V102.258C57.3947 104.946 55.2227 107.125 52.5377 107.136C49.8377 107.146 47.6417 104.961 47.6367 102.258V97.3529Z" fill="#00084D"/>
<path d="M33 112.041C32.99 109.343 35.167 107.146 37.863 107.136H42.764C45.464 107.141 47.647 109.339 47.637 112.041C47.626 114.729 45.449 116.904 42.764 116.909H37.863C35.182 116.899 33.011 114.725 33 112.041Z" fill="#00084D"/>
<path d="M57.4004 112.041C57.3904 109.328 59.5904 107.125 62.3024 107.136H67.1654C69.8764 107.125 72.0764 109.328 72.0664 112.041C72.0554 114.74 69.8614 116.92 67.1654 116.909H62.3024C59.6054 116.92 57.4114 114.74 57.4004 112.041Z" fill="#00084D"/>
<path d="M47.6367 121.777C47.6467 119.078 49.8407 116.899 52.5377 116.909C55.2187 116.92 57.3897 119.093 57.3997 121.777V126.683C57.3897 129.367 55.2187 131.54 52.5377 131.55C49.8407 131.561 47.6467 129.382 47.6367 126.683V121.777Z" fill="#00084D"/>
<path d="M442.014 306.633C442.024 303.934 444.219 301.755 446.915 301.765C449.596 301.776 451.767 303.949 451.778 306.633V311.539C451.772 314.226 449.6 316.406 446.915 316.416C444.215 316.427 442.019 314.241 442.014 311.539V306.633Z" fill="#00084D"/>
<path d="M427.377 321.322C427.367 318.623 429.544 316.427 432.24 316.416H437.141C439.841 316.421 442.024 318.619 442.014 321.322C442.003 324.01 439.826 326.184 437.141 326.19H432.24C429.559 326.179 427.388 324.006 427.377 321.322Z" fill="#00084D"/>
<path d="M451.777 321.322C451.766 318.608 453.967 316.406 456.678 316.416H461.541C464.252 316.406 466.452 318.608 466.442 321.322C466.431 324.021 464.237 326.2 461.541 326.19H456.678C453.981 326.2 451.787 324.021 451.777 321.322Z" fill="#00084D"/>
<path d="M442.014 331.057C442.024 328.359 444.219 326.179 446.915 326.19C449.596 326.2 451.767 328.373 451.778 331.057V335.963C451.767 338.647 449.596 340.82 446.915 340.831C444.219 340.841 442.024 338.662 442.014 335.963V331.057Z" fill="#00084D"/>
<path d="M306.215 98.2831C306.226 95.5841 308.42 93.4051 311.116 93.4151C313.797 93.4261 315.968 95.5991 315.979 98.2831V103.189C315.974 105.876 313.801 108.055 311.116 108.066C308.416 108.077 306.22 105.891 306.215 103.189V98.2831Z" fill="#00084D"/>
<path d="M291.578 112.972C291.567 110.273 293.744 108.077 296.44 108.066H301.342C304.042 108.071 306.225 110.269 306.214 112.972C306.204 115.659 304.027 117.834 301.342 117.839H296.44C293.759 117.829 291.588 115.656 291.578 112.972Z" fill="#00084D"/>
<path d="M315.979 112.972C315.968 110.258 318.169 108.055 320.88 108.066H325.743C328.454 108.055 330.655 110.258 330.644 112.972C330.634 115.671 328.439 117.85 325.743 117.839H320.88C318.184 117.85 315.989 115.671 315.979 112.972Z" fill="#00084D"/>
<path d="M306.215 122.707C306.226 120.008 308.42 117.829 311.116 117.839C313.797 117.85 315.968 120.023 315.979 122.707V127.613C315.968 130.297 313.797 132.47 311.116 132.481C308.42 132.491 306.226 130.312 306.215 127.613V122.707Z" fill="#00084D"/>
<path d="M267.744 345.5H354.539C356.841 345.5 359.048 344.585 360.676 342.957C362.304 341.329 363.218 339.121 363.218 336.818V267.363C363.218 265.061 362.304 262.853 360.676 261.224C359.048 259.596 356.841 258.682 354.539 258.682H267.744C265.442 258.682 263.234 259.596 261.606 261.224C259.979 262.853 259.064 265.061 259.064 267.363V336.818C259.064 339.121 259.979 341.329 261.606 342.957C263.234 344.585 265.442 345.5 267.744 345.5ZM276.423 276.045H345.859V328.136H276.423V276.045Z" fill="#00084D"/>
<path d="M458.694 388.909H406.617V197.909H423.976C425.319 197.909 426.643 197.598 427.846 196.999C429.048 196.401 430.095 195.531 430.905 194.459C431.714 193.387 432.263 192.141 432.51 190.821C432.757 189.5 432.693 188.14 432.325 186.848L397.607 65.303C397.09 63.487 395.995 61.889 394.488 60.752C392.982 59.615 391.145 58.999 389.258 59H111.514C109.626 58.999 107.79 59.615 106.283 60.752C104.776 61.889 103.681 63.487 103.164 65.303L68.4464 186.848C68.0784 188.14 68.0154 189.5 68.2614 190.821C68.5084 192.141 69.0584 193.387 69.8674 194.459C70.6764 195.531 71.7234 196.401 72.9264 196.999C74.1284 197.598 75.4534 197.909 76.7964 197.909H94.1554V388.909H42.0784C39.7764 388.909 37.5684 389.824 35.9414 391.452C34.3134 393.08 33.3984 395.288 33.3984 397.591V432.318C33.3984 434.621 34.3134 436.829 35.9414 438.457C37.5684 440.085 39.7764 441 42.0784 441H458.694C460.996 441 463.203 440.085 464.831 438.457C466.459 436.829 467.373 434.621 467.373 432.318V397.591C467.373 395.288 466.459 393.08 464.831 391.452C463.203 389.824 460.996 388.909 458.694 388.909ZM118.058 76.364H382.713L412.467 180.545H88.3054L118.058 76.364ZM111.514 197.909H389.258V388.909H233.027V258.682C233.027 256.379 232.112 254.171 230.485 252.543C228.857 250.915 226.649 250 224.347 250H137.552C135.25 250 133.043 250.915 131.415 252.543C129.787 254.171 128.873 256.379 128.873 258.682V388.909H111.514V197.909ZM215.668 388.909H146.232V267.364H215.668V388.909ZM450.014 423.636H50.7574V406.273H450.014V423.636Z" fill="#00084D"/>
</svg>
