<svg width="500" height="500" viewBox="0 0 500 500" fill="none" xmlns="http://www.w3.org/2000/svg">
<path d="M39.8203 283.168C39.8343 279.698 42.6553 276.896 46.1223 276.909C49.5703 276.923 52.3613 279.717 52.3753 283.168V289.476C52.3683 292.932 49.5743 295.734 46.1223 295.747C42.6503 295.761 39.8273 292.951 39.8203 289.476V283.168Z" fill="#00084D"/>
<path d="M21.0001 302.055C20.9861 298.585 23.7861 295.761 27.2521 295.747H33.554C37.026 295.754 39.8331 298.58 39.8191 302.055C39.8061 305.511 37.007 308.307 33.554 308.314H27.2521C23.8051 308.3 21.0131 305.506 21.0001 302.055Z" fill="#00084D"/>
<path d="M52.3751 302.055C52.3611 298.566 55.1911 295.734 58.6771 295.747H64.9291C68.4151 295.734 71.2451 298.566 71.2311 302.055C71.2181 305.525 68.3961 308.327 64.9291 308.314H58.6771C55.2101 308.327 52.3881 305.525 52.3751 302.055Z" fill="#00084D"/>
<path d="M39.8203 314.573C39.8343 311.103 42.6553 308.3 46.1223 308.314C49.5703 308.327 52.3613 311.122 52.3753 314.573V320.881C52.3613 324.332 49.5703 327.126 46.1223 327.14C42.6553 327.153 39.8343 324.351 39.8203 320.881V314.573Z" fill="#00084D"/>
<path d="M447.643 238.917C447.657 235.447 450.478 232.645 453.945 232.658C457.392 232.672 460.184 235.466 460.197 238.917V245.225C460.191 248.681 457.397 251.483 453.945 251.497C450.473 251.51 447.65 248.7 447.643 245.225V238.917Z" fill="#00084D"/>
<path d="M428.824 257.804C428.811 254.334 431.61 251.51 435.077 251.497H441.379C444.851 251.503 447.658 254.329 447.644 257.804C447.631 261.26 444.831 264.056 441.379 264.063H435.077C431.629 264.05 428.838 261.255 428.824 257.804Z" fill="#00084D"/>
<path d="M460.197 257.804C460.184 254.315 463.013 251.483 466.499 251.497H472.752C476.238 251.483 479.067 254.315 479.054 257.804C479.04 261.275 476.219 264.077 472.752 264.063H466.499C463.032 264.077 460.211 261.275 460.197 257.804Z" fill="#00084D"/>
<path d="M447.643 270.322C447.657 266.852 450.478 264.05 453.945 264.063C457.392 264.077 460.184 266.871 460.197 270.322V276.63C460.184 280.081 457.392 282.875 453.945 282.889C450.478 282.902 447.657 280.1 447.643 276.63V270.322Z" fill="#00084D"/>
<path d="M103.161 354.203V354.292L103.657 354.296C115.781 354.392 127.376 359.273 135.918 367.875C144.461 376.478 149.261 388.106 149.272 400.229C149.254 409.324 146.537 418.208 141.464 425.756C136.392 433.305 129.193 439.178 120.779 442.631C112.366 446.084 103.116 446.961 94.2042 445.153C85.2912 443.344 77.1152 438.93 70.7132 432.471C64.3122 426.011 59.9711 417.797 58.2421 408.868C56.5141 399.939 57.4741 390.698 61.0031 382.316C64.5312 373.934 70.4682 366.788 78.0622 361.783C85.5172 356.87 94.2402 354.237 103.161 354.203ZM71.4562 448.332C80.9982 454.672 92.2072 458.037 103.663 458C118.961 457.951 133.616 451.845 144.425 441.02C155.233 430.194 161.315 415.528 161.339 400.231C161.357 388.775 157.975 377.571 151.62 368.04C145.265 358.508 136.223 351.077 125.641 346.689C115.059 342.301 103.412 341.153 92.1771 343.39C80.9421 345.627 70.6231 351.149 62.5292 359.256C54.4352 367.363 48.9302 377.691 46.7112 388.929C44.4922 400.168 45.6592 411.813 50.0642 422.388C54.4692 432.963 61.9152 441.993 71.4562 448.332Z" fill="#00084D" stroke="#00084D"/>
<path d="M252.509 425.307H252.521C260.701 425.11 268.47 421.68 274.127 415.769C279.783 409.858 282.867 401.948 282.705 393.769V259.226C282.901 243.445 278.466 227.953 269.947 214.668C261.428 201.382 249.199 190.886 234.775 184.48L234.77 184.478C225.647 180.555 215.821 178.533 205.891 178.535H106.199C104.623 178.535 103.112 179.161 101.998 180.275C100.884 181.389 100.258 182.9 100.258 184.476V348.401V348.424L100.26 348.447C100.397 349.933 101.084 351.315 102.187 352.321C103.29 353.328 104.729 353.885 106.222 353.885C107.715 353.885 109.154 353.328 110.257 352.321C111.36 351.315 112.047 349.933 112.184 348.447L112.186 348.424V348.401V190.555L205.891 190.556L205.899 190.555C214.187 190.431 222.416 191.986 230.087 195.126C242.418 200.624 252.854 209.635 260.091 221.032C267.329 232.431 271.046 245.712 270.777 259.212V259.222V393.774V393.782V393.79C270.935 398.808 269.1 403.685 265.674 407.356C262.25 411.024 257.514 413.189 252.5 413.378H151.711H151.688L151.665 413.381C150.178 413.517 148.796 414.204 147.79 415.307C146.784 416.41 146.226 417.85 146.226 419.343C146.226 420.836 146.784 422.275 147.79 423.378C148.796 424.481 150.178 425.168 151.665 425.305L151.688 425.307H151.711H252.509Z" fill="#00084D" stroke="#00084D"/>
<path d="M276.716 310.444H276.739L276.762 310.442C278.249 310.305 279.631 309.618 280.637 308.515C281.643 307.412 282.201 305.973 282.201 304.48C282.201 302.987 281.643 301.548 280.637 300.445C279.631 299.342 278.249 298.655 276.762 298.518L276.739 298.516H276.716H106.105H106.083L106.06 298.518C104.573 298.655 103.191 299.342 102.185 300.445C101.179 301.548 100.621 302.987 100.621 304.48C100.621 305.973 101.179 307.412 102.185 308.515C103.191 309.618 104.573 310.305 106.06 310.442L106.083 310.444H106.105H276.716Z" fill="#00084D" stroke="#00084D"/>
<path d="M127.557 277.298L127.555 277.321V277.344V282.785C127.555 284.373 128.186 285.896 129.309 287.019C130.432 288.141 131.955 288.772 133.543 288.772C134.327 288.772 135.104 288.617 135.828 288.315C136.552 288.013 137.209 287.571 137.761 287.014C138.314 286.457 138.75 285.796 139.046 285.07C139.341 284.344 139.49 283.567 139.484 282.783V277.344V277.321L139.482 277.298C139.345 275.811 138.658 274.429 137.555 273.423C136.452 272.417 135.012 271.859 133.519 271.859C132.027 271.859 130.587 272.417 129.484 273.423C128.381 274.429 127.694 275.811 127.557 277.298Z" fill="#00084D" stroke="#00084D"/>
<path d="M154.854 277.298L154.852 277.321V277.344V282.785C154.852 284.373 155.483 285.896 156.605 287.019C157.728 288.141 159.251 288.772 160.839 288.772C161.623 288.772 162.4 288.617 163.124 288.315C163.848 288.013 164.505 287.571 165.058 287.014C165.61 286.457 166.047 285.796 166.342 285.07C166.638 284.344 166.786 283.567 166.78 282.783V277.344V277.321L166.778 277.298C166.641 275.811 165.954 274.429 164.851 273.423C163.748 272.417 162.309 271.859 160.816 271.859C159.323 271.859 157.884 272.417 156.781 273.423C155.678 274.429 154.991 275.811 154.854 277.298Z" fill="#00084D" stroke="#00084D"/>
<path d="M274.432 332.001C275.158 332.297 275.935 332.445 276.719 332.439H297.328C298.904 332.439 300.415 331.813 301.529 330.699C302.644 329.585 303.27 328.074 303.27 326.498V304.641C303.27 303.066 302.644 301.554 301.529 300.44C300.415 299.326 298.904 298.7 297.328 298.7H276.719C275.935 298.694 275.158 298.843 274.432 299.138C273.705 299.433 273.045 299.87 272.487 300.422C271.93 300.975 271.488 301.632 271.187 302.356C270.885 303.08 270.73 303.857 270.73 304.641V326.498C270.73 327.282 270.885 328.059 271.187 328.783C271.488 329.507 271.93 330.164 272.487 330.717C273.045 331.269 273.705 331.706 274.432 332.001ZM291.341 310.444V320.557H282.614L282.656 310.444H291.341Z" fill="#00084D" stroke="#00084D"/>
<path d="M106.197 190.556H155.351C156.939 190.556 158.462 189.925 159.585 188.802C160.708 187.679 161.338 186.156 161.338 184.568V151.829C161.338 150.242 160.708 148.719 159.585 147.596C158.462 146.473 156.939 145.842 155.351 145.842H106.197C105.412 145.842 104.636 145.998 103.912 146.299C103.187 146.601 102.53 147.043 101.978 147.6C101.426 148.157 100.989 148.818 100.693 149.545C100.398 150.271 100.249 151.048 100.256 151.832V184.566C100.249 185.35 100.398 186.127 100.693 186.853C100.989 187.58 101.426 188.241 101.978 188.798C102.53 189.355 103.187 189.797 103.912 190.099C104.636 190.4 105.412 190.556 106.197 190.556ZM149.272 178.627H112.184V157.678H149.272V178.627Z" fill="#00084D" stroke="#00084D"/>
<path d="M348.005 195.902L348.028 195.904H348.051H373.827C375.385 195.905 376.881 195.292 377.993 194.2C379.104 193.107 379.742 191.622 379.768 190.064V190.055V67.123C379.768 53.233 366.941 42 351.325 42H139.629C124.013 42 111.186 53.233 111.186 67.123V151.737V151.76L111.188 151.783C111.325 153.27 112.012 154.652 113.115 155.658C114.218 156.664 115.657 157.222 117.15 157.222C118.643 157.222 120.082 156.664 121.185 155.658C122.288 154.652 122.975 153.27 123.112 151.783L123.114 151.76V151.737V67.123C123.114 59.795 130.576 53.79 139.629 53.79H351.233C360.465 53.79 367.794 59.929 367.794 67.123V183.976H348.051H348.028L348.005 183.978C346.518 184.115 345.136 184.802 344.13 185.905C343.124 187.008 342.566 188.447 342.566 189.94C342.566 191.433 343.124 192.872 344.13 193.975C345.136 195.078 346.518 195.766 348.005 195.902Z" fill="#00084D" stroke="#00084D"/>
<path d="M348.042 195.904H348.046C349.613 195.918 351.122 195.312 352.245 194.218C353.367 193.124 354.011 191.631 354.038 190.064V190.056V69.7981C354.038 69.0141 353.883 68.2371 353.581 67.5131C353.279 66.7891 352.837 66.1311 352.28 65.5791C351.723 65.0271 351.062 64.5901 350.335 64.2951C349.609 63.9991 348.832 63.8511 348.049 63.8571H142.81C141.235 63.8571 139.724 64.4831 138.609 65.5971C137.495 66.7111 136.869 68.2221 136.869 69.7981V151.737C136.869 153.313 137.495 154.824 138.609 155.938C139.724 157.052 141.235 157.678 142.81 157.678C144.386 157.678 145.897 157.052 147.011 155.938C148.126 154.824 148.751 153.313 148.751 151.737V75.7851H342.202V190.056V190.064C342.228 191.605 342.851 193.075 343.941 194.165C345.031 195.255 346.501 195.878 348.042 195.904Z" fill="#00084D" stroke="#00084D"/>
<path d="M341.041 184.068H379.259C380.059 184.043 380.856 184.177 381.604 184.465C382.353 184.754 383.037 185.191 383.615 185.749C384.192 186.308 384.651 186.977 384.965 187.717C385.278 188.457 385.439 189.252 385.439 190.056M341.041 184.068L385.439 326.498ZM341.041 184.068H341.037C339.458 184.082 337.948 184.718 336.836 185.84C335.724 186.961 335.1 188.476 335.1 190.055V190.056V326.498C335.1 327.278 335.254 328.051 335.552 328.772C335.851 329.492 336.289 330.147 336.84 330.699C337.392 331.251 338.047 331.688 338.768 331.987C339.489 332.285 340.261 332.439 341.041 332.439H379.257L341.041 184.068ZM385.439 190.056L384.939 190.055H385.439V190.056ZM385.439 190.056V326.498ZM373.326 195.904V320.557H347.029V195.904H373.326Z" fill="#00084D"/>
<path d="M341.041 184.068H379.259C380.059 184.043 380.856 184.177 381.604 184.465C382.353 184.754 383.037 185.191 383.615 185.749C384.192 186.308 384.651 186.977 384.965 187.717C385.278 188.457 385.439 189.252 385.439 190.056M341.041 184.068L385.439 326.498M341.041 184.068H341.037C339.458 184.082 337.948 184.718 336.836 185.84C335.724 186.961 335.1 188.476 335.1 190.055V190.056V326.498C335.1 327.278 335.254 328.051 335.552 328.772C335.851 329.492 336.289 330.147 336.84 330.699C337.392 331.251 338.047 331.688 338.768 331.987C339.489 332.285 340.261 332.439 341.041 332.439H379.257L341.041 184.068ZM385.439 190.056L384.939 190.055H385.439V190.056ZM385.439 190.056V326.498M385.439 326.498H384.948M373.326 195.904V320.557H347.029V195.904H373.326Z" stroke="#00084D"/>
<path d="M393.053 370.711C391.821 370.703 390.621 370.318 389.614 369.608C388.608 368.898 387.842 367.897 387.422 366.739L387.421 366.738L375.09 332.439H349.546L360.419 362.711C360.953 364.199 360.874 365.839 360.199 367.269C359.865 367.977 359.394 368.612 358.815 369.138C358.235 369.665 357.557 370.072 356.82 370.336C355.332 370.87 353.692 370.791 352.262 370.116C350.833 369.441 349.729 368.226 349.195 366.738L335.364 328.518C335.364 328.517 335.363 328.516 335.363 328.515C335.028 327.618 334.916 326.654 335.038 325.704C335.159 324.753 335.51 323.847 336.061 323.063C336.612 322.279 337.346 321.641 338.199 321.204C339.051 320.768 339.996 320.546 340.953 320.557H379.176L379.177 321.057L393.053 370.711ZM393.053 370.711C393.741 370.715 394.425 370.596 395.071 370.359C395.81 370.094 396.489 369.686 397.069 369.158C397.65 368.629 398.12 367.991 398.453 367.279C398.785 366.567 398.973 365.797 399.006 365.012C399.039 364.227 398.916 363.445 398.644 362.708M393.053 370.711L398.644 362.708ZM398.644 362.708C398.644 362.708 398.644 362.707 398.643 362.706L398.644 362.708Z" fill="#00084D"/>
<path d="M393.053 370.711C391.821 370.703 390.621 370.318 389.614 369.608C388.608 368.898 387.842 367.897 387.422 366.739L387.421 366.738L375.09 332.439H349.546L360.419 362.711C360.953 364.199 360.874 365.839 360.199 367.269C359.865 367.977 359.394 368.612 358.815 369.138C358.235 369.665 357.557 370.072 356.82 370.336C355.332 370.87 353.692 370.791 352.262 370.116C350.833 369.441 349.729 368.226 349.195 366.738L335.364 328.518C335.364 328.517 335.363 328.516 335.363 328.515C335.028 327.618 334.916 326.654 335.038 325.704C335.159 324.753 335.51 323.847 336.061 323.063C336.612 322.279 337.346 321.641 338.199 321.204C339.051 320.768 339.996 320.546 340.953 320.557H379.176L379.177 321.057L393.053 370.711ZM393.053 370.711C393.741 370.715 394.425 370.596 395.071 370.359C395.81 370.094 396.489 369.686 397.069 369.158C397.65 368.629 398.12 367.991 398.453 367.279C398.785 366.567 398.973 365.797 399.006 365.012C399.039 364.227 398.916 363.445 398.644 362.708M393.053 370.711L398.644 362.708M398.644 362.708C398.644 362.708 398.644 362.707 398.643 362.706L398.644 362.708Z" stroke="#00084D"/>
<path d="M300.508 397.608C301.24 397.909 302.026 398.061 302.818 398.055H455.766C456.555 398.055 457.336 397.898 458.063 397.593C458.791 397.288 459.45 396.842 460.003 396.279C460.556 395.717 460.992 395.05 461.284 394.318C461.576 393.586 461.72 392.804 461.707 392.017V364.724C461.707 363.148 461.081 361.637 459.967 360.523C458.853 359.409 457.342 358.783 455.766 358.783H302.77C301.194 358.783 299.683 359.409 298.569 360.523C297.455 361.637 296.829 363.148 296.829 364.724V392.017C296.816 392.809 296.961 393.595 297.256 394.329C297.552 395.065 297.992 395.734 298.55 396.297C299.109 396.86 299.774 397.306 300.508 397.608ZM449.779 370.665V386.127H308.714L308.8 370.665H449.779Z" fill="#00084D" stroke="#00084D"/>
<path d="M296.83 391.976L296.828 391.999V392.022V408.437C296.828 409.222 296.983 409.999 297.285 410.723C297.587 411.447 298.029 412.104 298.586 412.656C299.143 413.209 299.804 413.645 300.53 413.941C301.256 414.236 302.033 414.385 302.817 414.379C303.597 414.378 304.368 414.225 305.089 413.926C305.809 413.628 306.464 413.19 307.016 412.639C307.568 412.087 308.005 411.432 308.304 410.711C308.602 409.99 308.756 409.218 308.756 408.437V392.022V391.999L308.754 391.976C308.617 390.489 307.93 389.107 306.827 388.101C305.724 387.095 304.285 386.537 302.792 386.537C301.299 386.537 299.86 387.095 298.757 388.101C297.654 389.107 296.967 390.489 296.83 391.976Z" fill="#00084D" stroke="#00084D"/>
<path d="M340.543 391.976L340.541 391.999V392.022V408.437C340.541 409.222 340.696 409.999 340.998 410.723C341.3 411.447 341.742 412.104 342.299 412.656C342.856 413.209 343.517 413.645 344.244 413.941C344.97 414.236 345.747 414.385 346.531 414.379C347.31 414.378 348.082 414.225 348.802 413.926C349.523 413.628 350.178 413.19 350.729 412.639C351.281 412.087 351.719 411.432 352.017 410.711C352.316 409.99 352.469 409.218 352.469 408.437V392.022V391.999L352.467 391.976C352.331 390.489 351.643 389.107 350.54 388.101C349.437 387.095 347.998 386.537 346.505 386.537C345.012 386.537 343.573 387.095 342.47 388.101C341.367 389.107 340.68 390.489 340.543 391.976Z" fill="#00084D" stroke="#00084D"/>
<path d="M322.397 413.926C323.118 414.225 323.891 414.378 324.671 414.378C325.451 414.378 326.223 414.225 326.944 413.926C327.665 413.627 328.32 413.19 328.872 412.638C329.423 412.087 329.861 411.432 330.16 410.711C330.458 409.99 330.612 409.217 330.612 408.437V392.022C330.612 390.446 329.986 388.935 328.872 387.821C327.758 386.706 326.246 386.081 324.671 386.081C323.095 386.081 321.584 386.706 320.47 387.821C319.356 388.935 318.73 390.446 318.73 392.022V408.437C318.73 409.217 318.883 409.99 319.182 410.711C319.48 411.432 319.918 412.087 320.47 412.638C321.021 413.19 321.676 413.627 322.397 413.926Z" fill="#00084D" stroke="#00084D"/>
<path d="M362.398 391.976L362.396 391.999V392.022V408.437C362.396 409.222 362.552 409.999 362.854 410.723C363.156 411.447 363.597 412.104 364.154 412.656C364.711 413.209 365.372 413.645 366.099 413.941C366.825 414.236 367.602 414.385 368.386 414.379C369.165 414.378 369.937 414.225 370.657 413.926C371.378 413.628 372.033 413.19 372.584 412.639C373.136 412.087 373.574 411.432 373.872 410.711C374.171 409.99 374.324 409.218 374.324 408.437V392.022V391.999L374.323 391.976C374.187 390.489 373.499 389.107 372.396 388.101C371.293 387.095 369.853 386.537 368.36 386.537C366.867 386.537 365.429 387.095 364.326 388.101C363.223 389.107 362.535 390.489 362.398 391.976Z" fill="#00084D" stroke="#00084D"/>
<path d="M384.439 391.999L384.441 391.976C384.577 390.489 385.265 389.107 386.368 388.101C387.471 387.095 388.91 386.537 390.403 386.537C391.896 386.537 393.335 387.095 394.438 388.101C395.541 389.107 396.228 390.489 396.365 391.976L396.367 391.999V392.022V408.437L384.439 391.999ZM384.439 391.999V392.022V408.437V391.999Z" fill="#00084D"/>
<path d="M384.439 391.999L384.441 391.976C384.577 390.489 385.265 389.107 386.368 388.101C387.471 387.095 388.91 386.537 390.403 386.537C391.896 386.537 393.335 387.095 394.438 388.101C395.541 389.107 396.228 390.489 396.365 391.976L396.367 391.999V392.022V408.437L384.439 391.999ZM384.439 391.999V392.022V408.437V391.999Z" stroke="#00084D"/>
<path d="M406.113 391.976L406.111 391.999V392.022V408.437C406.111 409.218 406.265 409.99 406.563 410.711C406.862 411.432 407.299 412.087 407.851 412.639C408.403 413.19 409.058 413.628 409.779 413.926C410.499 414.225 411.27 414.378 412.05 414.379C412.834 414.385 413.611 414.236 414.337 413.941C415.064 413.645 415.724 413.209 416.281 412.656C416.838 412.104 417.281 411.447 417.582 410.723C417.884 409.999 418.039 409.222 418.039 408.437V392.022V391.999L418.037 391.976C417.9 390.489 417.213 389.107 416.11 388.101C415.007 387.095 413.568 386.537 412.075 386.537C410.582 386.537 409.143 387.095 408.04 388.101C406.937 389.107 406.25 390.489 406.113 391.976Z" fill="#00084D" stroke="#00084D"/>
<path d="M427.924 391.976L427.922 391.999V392.022V408.437C427.922 409.222 428.077 409.999 428.379 410.723C428.68 411.447 429.122 412.104 429.679 412.656C430.236 413.209 430.897 413.645 431.624 413.941C432.35 414.236 433.127 414.385 433.911 414.379C434.69 414.378 435.462 414.225 436.182 413.926C436.903 413.628 437.558 413.19 438.11 412.639C438.661 412.087 439.099 411.432 439.398 410.711C439.696 409.99 439.85 409.218 439.85 408.437V392.022V391.999L439.848 391.976C439.711 390.489 439.024 389.107 437.921 388.101C436.818 387.095 435.379 386.537 433.886 386.537C432.393 386.537 430.954 387.095 429.851 388.101C428.748 389.107 428.06 390.489 427.924 391.976Z" fill="#00084D" stroke="#00084D"/>
<path d="M449.78 391.976L449.777 391.999V392.022V408.437C449.777 409.222 449.933 409.999 450.235 410.723C450.536 411.447 450.978 412.104 451.535 412.656C452.092 413.209 452.753 413.645 453.48 413.941C454.206 414.236 454.983 414.385 455.767 414.379C456.546 414.378 457.318 414.225 458.038 413.926C458.759 413.628 459.414 413.19 459.966 412.639C460.517 412.087 460.955 411.432 461.254 410.711C461.552 409.99 461.706 409.218 461.706 408.437V392.022V391.999L461.704 391.976C461.567 390.489 460.88 389.107 459.777 388.101C458.674 387.095 457.235 386.537 455.742 386.537C454.249 386.537 452.81 387.095 451.707 388.101C450.604 389.107 449.916 390.489 449.78 391.976Z" fill="#00084D" stroke="#00084D"/>
<path d="M103.662 436.235H103.663C113.205 436.21 122.348 432.409 129.095 425.662C135.841 418.916 139.643 409.772 139.667 400.231V400.23C139.667 393.108 137.556 386.147 133.599 380.226C129.643 374.305 124.02 369.69 117.441 366.965C110.861 364.24 103.622 363.527 96.6379 364.916C89.6529 366.305 83.2379 369.734 78.2019 374.77C73.1669 379.805 69.7379 386.221 68.3479 393.205C66.9589 400.19 67.6719 407.429 70.3969 414.008C73.1219 420.587 77.7369 426.211 83.6579 430.167C89.5789 434.123 96.5409 436.235 103.662 436.235ZM103.662 376.291H104.162V376.158C107.165 376.22 110.131 376.844 112.907 377.998C115.837 379.217 118.498 381.002 120.735 383.252C122.973 385.502 124.743 388.173 125.945 391.11C127.147 394.046 127.757 397.192 127.739 400.365V400.368C127.739 405.13 126.327 409.785 123.681 413.745C121.036 417.704 117.275 420.79 112.876 422.612C108.476 424.435 103.635 424.912 98.9649 423.983C94.2939 423.053 90.0039 420.76 86.6369 417.393C83.2699 414.026 80.9759 409.736 80.0469 405.065C79.1179 400.395 79.5949 395.554 81.4169 391.154C83.2399 386.754 86.3259 382.994 90.2849 380.349C94.2449 377.703 98.8999 376.291 103.662 376.291Z" fill="#00084D" stroke="#00084D"/>
</svg>
