<svg width="70" height="70" viewBox="0 0 70 70" fill="none" xmlns="http://www.w3.org/2000/svg">
<g clip-path="url(#clip0_971_89)">
<path d="M63.8317 16.8H15.5185C12.0898 16.8 9.28454 19.32 9.28454 22.4V24.5C9.28454 25.27 9.98586 25.9 10.843 25.9C11.7002 25.9 12.4015 25.27 12.4015 24.5V22.4C12.4015 22.12 12.4794 21.84 12.5574 21.56L30.0125 35L12.5574 48.44C12.4794 48.16 12.4015 47.88 12.4015 47.6V45.5C12.4015 44.73 11.7002 44.1 10.843 44.1C9.98586 44.1 9.28454 44.73 9.28454 45.5V47.6C9.28454 50.68 12.0898 53.2 15.5185 53.2H63.8317C67.2604 53.2 70.0657 50.68 70.0657 47.6V22.4C70.0657 19.32 67.2604 16.8 63.8317 16.8ZM14.8951 19.67C15.051 19.6 15.2847 19.6 15.5185 19.6H63.8317C64.0655 19.6 64.2993 19.6 64.4551 19.67L40.6881 37.94C40.0647 38.36 39.2855 38.36 38.6621 37.94L14.8951 19.67ZM63.8317 50.4H15.5185C15.2847 50.4 15.051 50.4 14.8951 50.33L32.4281 36.82L36.636 40.11C37.4932 40.81 38.5842 41.16 39.6751 41.16C40.766 41.16 41.857 40.81 42.7142 40.11L46.9221 36.82L64.4551 50.33C64.2993 50.4 64.0655 50.4 63.8317 50.4ZM66.9487 47.6C66.9487 47.88 66.8708 48.16 66.7928 48.44L49.3377 35L66.7928 21.56C66.8708 21.84 66.9487 22.12 66.9487 22.4V47.6ZM4.60907 31.5C4.60907 30.73 5.31039 30.1 6.16756 30.1H15.5185C16.3757 30.1 17.077 30.73 17.077 31.5C17.077 32.27 16.3757 32.9 15.5185 32.9H6.16756C5.31039 32.9 4.60907 32.27 4.60907 31.5ZM15.5185 39.9H1.49208C0.634915 39.9 -0.0664062 39.27 -0.0664062 38.5C-0.0664062 37.73 0.634915 37.1 1.49208 37.1H15.5185C16.3757 37.1 17.077 37.73 17.077 38.5C17.077 39.27 16.3757 39.9 15.5185 39.9Z" fill="white"/>
</g>
<defs>
<clipPath id="clip0_971_89">
<rect width="70" height="70" fill="white"/>
</clipPath>
</defs>
</svg>
