<svg width="40" height="40" viewBox="0 0 40 40" fill="none" xmlns="http://www.w3.org/2000/svg">
<path d="M2.66211 18.2589C2.66326 17.9624 2.90437 17.723 3.20056 17.7241C3.49516 17.7253 3.7337 17.964 3.73486 18.2589V18.7978C3.73424 19.0931 3.49551 19.3326 3.20056 19.3337C2.90393 19.3349 2.66273 19.0948 2.66211 18.7978V18.2589Z" fill="#00084D"/>
<path d="M1.05469 19.8729C1.05354 19.5764 1.29271 19.3351 1.58898 19.334H2.12744C2.42407 19.3345 2.66386 19.576 2.66271 19.8729C2.66155 20.1682 2.42239 20.4072 2.12744 20.4077H1.58898C1.29439 20.4066 1.05584 20.1678 1.05469 19.8729Z" fill="#00084D"/>
<path d="M3.73438 19.8729C3.73323 19.5748 3.97496 19.3328 4.27283 19.334H4.80704C5.10491 19.3328 5.34664 19.5748 5.34549 19.8729C5.34434 20.1694 5.10332 20.4089 4.80704 20.4077H4.27283C3.97656 20.4089 3.73553 20.1694 3.73438 19.8729Z" fill="#00084D"/>
<path d="M2.66211 20.9425C2.66326 20.646 2.90437 20.4066 3.20056 20.4077C3.49516 20.4089 3.7337 20.6477 3.73486 20.9425V21.4814C3.7337 21.7764 3.49516 22.0151 3.20056 22.0163C2.90437 22.0174 2.66326 21.778 2.66211 21.4814V20.9425Z" fill="#00084D"/>
<path d="M19.4219 5.28141C19.423 4.98487 19.6641 4.74544 19.9603 4.74659C20.2549 4.74774 20.4934 4.98646 20.4945 5.28141V5.82031C20.494 6.11561 20.2553 6.35504 19.9603 6.35619C19.6637 6.35735 19.4224 6.11729 19.4219 5.82031V5.28141Z" fill="#00084D"/>
<path d="M17.8125 6.89485C17.8114 6.5984 18.0505 6.35711 18.3468 6.35596H18.8853C19.1819 6.35649 19.4217 6.59796 19.4205 6.89485C19.4194 7.19016 19.1802 7.42915 18.8853 7.42968H18.3468C18.0522 7.42853 17.8137 7.1898 17.8125 6.89485Z" fill="#00084D"/>
<path d="M20.4941 6.89486C20.493 6.59681 20.7348 6.35481 21.0326 6.35596H21.5669C21.8648 6.35481 22.1065 6.59681 22.1053 6.89486C22.1042 7.1914 21.8632 7.43083 21.5669 7.42968H21.0326C20.7364 7.43083 20.4954 7.1914 20.4941 6.89486Z" fill="#00084D"/>
<path d="M19.4219 7.96452C19.423 7.66797 19.6641 7.42854 19.9603 7.42969C20.2549 7.43084 20.4934 7.66965 20.4945 7.96452V8.5035C20.4934 8.79836 20.2549 9.03709 19.9603 9.03824C19.6641 9.03939 19.423 8.79996 19.4219 8.5035V7.96452Z" fill="#00084D"/>
<path d="M36.5659 20.8308H36.4597V18.1107C36.4597 13.387 32.613 9.54448 27.8844 9.54448C23.1563 9.54448 19.3095 13.387 19.3095 18.1107V20.8308C18.0062 20.775 16.9017 21.8206 16.9049 23.1268C16.9 24.4569 18.0444 25.5038 19.3663 25.4228L19.4979 26.8163C19.2092 26.6379 18.8723 26.5298 18.5084 26.5298H14.132V3.78077C14.132 2.2281 12.8676 0.965332 11.3137 0.965332C9.7598 0.965332 8.49544 2.2281 8.49544 3.78077V24.6393C8.49544 24.9877 8.77791 25.2695 9.12625 25.2695C9.4746 25.2695 9.75706 24.9877 9.75706 24.6393V3.78077C9.75706 2.92346 10.4553 2.22562 11.3137 2.22562C12.1722 2.22562 12.8704 2.92346 12.8704 3.78077V26.5298H4.11901C3.07548 26.5298 2.22658 27.3778 2.22658 28.4203V30.2794C2.22658 30.9924 2.62841 31.607 3.21335 31.929L1.18863 35.9078C1.02482 36.229 1.01065 36.6044 1.14949 36.9361C1.29462 37.2826 1.5878 37.5472 1.95403 37.6629C2.21737 37.7466 2.41944 37.8918 2.65293 38.0598C3.09585 38.3786 3.64687 38.7749 4.67924 38.7749C5.7117 38.7749 6.26273 38.3786 6.70564 38.0598C7.091 37.7823 7.36939 37.5823 7.99462 37.5823C8.61959 37.5823 8.89807 37.7823 9.28307 38.0598C9.72563 38.3786 10.2767 38.7749 11.3085 38.7749C12.3412 38.7749 12.8922 38.3786 13.3355 38.0598C13.7208 37.7829 13.9995 37.5823 14.6251 37.5823C15.2516 37.5823 15.5303 37.7829 15.9162 38.0598C16.3595 38.3786 16.9108 38.7749 17.9439 38.7749C18.9772 38.7749 19.5288 38.3786 19.9721 38.0598C20.2818 37.7929 20.6319 37.7013 20.9749 37.5185C21.551 38.2863 22.4668 38.7749 23.4981 38.7749H32.271C33.9072 38.7749 35.2572 37.5478 35.4112 35.9202L36.2188 27.3724C36.2514 27.0259 35.997 26.7188 35.6499 26.6862C35.3015 26.6406 34.9954 26.9071 34.9628 27.2541L34.1551 35.8019C34.0628 36.778 33.2527 37.5146 32.271 37.5146H23.4981C22.5162 37.5146 21.7061 36.778 21.614 35.8019L20.6335 25.4228H36.5659C37.8334 25.4228 38.8642 24.3927 38.8642 23.1268C38.8642 21.8609 37.8334 20.8308 36.5659 20.8308ZM20.1102 33.2966L19.4141 31.929C19.6152 31.8183 19.7924 31.6742 19.9405 31.5011L20.1102 33.2966ZM3.4882 28.4203C3.4882 28.0727 3.77128 27.7902 4.11901 27.7902H18.5084C18.8562 27.7902 19.1392 28.0727 19.1392 28.4203V30.2794C19.1392 30.6272 18.8562 30.9096 18.5084 30.9096H4.11901C3.77128 30.9096 3.4882 30.6272 3.4882 30.2794V28.4203ZM19.235 37.0364C18.8494 37.314 18.5703 37.5146 17.9439 37.5146C17.3176 37.5146 17.0389 37.314 16.653 37.037C16.2097 36.7182 15.6581 36.322 14.6251 36.322C13.5924 36.322 13.0414 36.7182 12.5981 37.037C12.2128 37.314 11.9341 37.5146 11.3085 37.5146C10.6839 37.5146 10.4054 37.3146 10.0204 37.037C9.57784 36.7182 9.02681 36.322 7.99462 36.322C6.96225 36.322 6.41122 36.7182 5.96831 37.037C5.58295 37.3146 5.30456 37.5146 4.67924 37.5146C4.05401 37.5146 3.77562 37.3146 3.39026 37.037C3.10939 36.8346 2.79054 36.6057 2.31318 36.4789L4.50613 32.1699H7.29908C7.04584 32.7934 6.52881 33.6376 5.52044 33.949C5.18777 34.0518 5.00111 34.4044 5.104 34.7367C5.20619 35.0726 5.56923 35.2553 5.89313 35.1527C7.67266 34.6035 8.37944 33.011 8.63517 32.1699H13.9923C14.248 33.011 14.9548 34.6035 16.7343 35.1527C17.0582 35.2554 17.4212 35.0726 17.5234 34.7367C17.6263 34.4044 17.4397 34.0518 17.107 33.949C16.1084 33.6405 15.5892 32.795 15.3328 32.1699H18.1206L20.2933 36.4604C19.8359 36.6044 19.5168 36.834 19.235 37.0364ZM20.5711 18.1107C20.5711 14.0823 23.8521 10.8048 27.8844 10.8048C31.9172 10.8048 35.198 14.0823 35.198 18.1107V20.8308H20.5711V18.1107ZM36.5659 24.1624H19.2033C18.6316 24.1624 18.1665 23.6978 18.1665 23.1268C18.1665 22.5557 18.6316 22.0911 19.2033 22.0911H36.5659C37.1376 22.0911 37.6026 22.5557 37.6026 23.1268C37.6026 23.6978 37.1376 24.1624 36.5659 24.1624Z" fill="#00084D"/>
</svg>
